<svg xmlns="http://www.w3.org/2000/svg" width="26" height="26" viewBox="0 0 26 26" fill="none">
    <mask id="mask0_361_570" style="mask-type:luminance" maskUnits="userSpaceOnUse" x="0" y="0" width="26" height="26">
        <path fill-rule="evenodd" clip-rule="evenodd"
            d="M0 13C0 5.8203 5.8203 0 13 0C20.1797 0 26 5.8203 26 13C26 20.1797 20.1797 26 13 26C5.8203 26 0 20.1797 0 13Z"
            fill="white" />
    </mask>
    <g mask="url(#mask0_361_570)">
        <path fill-rule="evenodd" clip-rule="evenodd"
            d="M0 13C0 5.8203 5.8203 0 13 0C20.1797 0 26 5.8203 26 13C26 20.1797 20.1797 26 13 26C5.8203 26 0 20.1797 0 13Z"
            fill="#6B5D53" />
        <path fill-rule="evenodd" clip-rule="evenodd"
            d="M13.0004 6.06641C11.1174 6.06641 10.8811 6.07464 10.1415 6.1083C9.4034 6.1421 8.89957 6.25895 8.45872 6.43041C8.0027 6.6075 7.61588 6.84439 7.2305 7.22992C6.84483 7.6153 6.60793 8.00213 6.43027 8.458C6.25837 8.89899 6.14137 9.40296 6.10815 10.1408C6.07507 10.8804 6.06641 11.1168 6.06641 12.9998C6.06641 14.8828 6.07478 15.1184 6.1083 15.858C6.14224 16.5961 6.2591 17.0999 6.43041 17.5408C6.60765 17.9968 6.84454 18.3836 7.23006 18.769C7.6153 19.1547 8.00213 19.3921 8.45785 19.5692C8.89899 19.7407 9.40296 19.8575 10.1409 19.8913C10.8805 19.925 11.1167 19.9332 12.9995 19.9332C14.8827 19.9332 15.1183 19.925 15.8578 19.8913C16.5959 19.8575 17.1003 19.7407 17.5415 19.5692C17.9974 19.3921 18.3836 19.1547 18.7688 18.769C19.1545 18.3836 19.3914 17.9968 19.5691 17.5409C19.7395 17.0999 19.8565 16.5959 19.8912 15.8581C19.9244 15.1185 19.9331 14.8828 19.9331 12.9998C19.9331 11.1168 19.9244 10.8805 19.8912 10.1409C19.8565 9.40282 19.7395 8.89899 19.5691 8.45814C19.3914 8.00213 19.1545 7.6153 18.7688 7.22992C18.3832 6.84425 17.9975 6.60736 17.541 6.43041C17.099 6.25895 16.5949 6.1421 15.8568 6.1083C15.1172 6.07464 14.8818 6.06641 12.9982 6.06641H13.0004ZM12.3783 7.31614C12.5629 7.31585 12.7689 7.31614 13.0003 7.31614C14.8515 7.31614 15.071 7.32278 15.802 7.356C16.478 7.38692 16.8449 7.49987 17.0893 7.59477C17.4129 7.72044 17.6435 7.87067 17.8861 8.11333C18.1287 8.356 18.279 8.58712 18.4049 8.91068C18.4998 9.15479 18.6129 9.52168 18.6437 10.1977C18.6769 10.9286 18.6841 11.1481 18.6841 12.9985C18.6841 14.8489 18.6769 15.0684 18.6437 15.7993C18.6128 16.4753 18.4998 16.8422 18.4049 17.0863C18.2793 17.4099 18.1287 17.6403 17.8861 17.8828C17.6434 18.1255 17.413 18.2757 17.0893 18.4014C16.8452 18.4967 16.478 18.6094 15.802 18.6403C15.0711 18.6735 14.8515 18.6807 13.0003 18.6807C11.149 18.6807 10.9296 18.6735 10.1987 18.6403C9.52265 18.6091 9.15576 18.4961 8.91121 18.4012C8.58765 18.2755 8.35654 18.1253 8.11387 17.8826C7.8712 17.64 7.72097 17.4094 7.59502 17.0857C7.50012 16.8416 7.38702 16.4747 7.35625 15.7987C7.32303 15.0678 7.31638 14.8483 7.31638 12.9968C7.31638 11.1453 7.32303 10.9269 7.35625 10.196C7.38716 9.51995 7.50012 9.15306 7.59502 8.90865C7.72069 8.5851 7.8712 8.35398 8.11387 8.11131C8.35654 7.86864 8.58765 7.71842 8.91121 7.59246C9.15561 7.49713 9.52265 7.38446 10.1987 7.3534C10.8383 7.32452 11.0861 7.31585 12.3783 7.3144V7.31614ZM16.7014 8.46743C16.242 8.46743 15.8694 8.83966 15.8694 9.29915C15.8694 9.75849 16.242 10.1312 16.7014 10.1312C17.1607 10.1312 17.5334 9.75849 17.5334 9.29915C17.5334 8.83981 17.1607 8.46714 16.7014 8.46714V8.46743ZM13.0004 9.4396C11.0341 9.4396 9.43983 11.0338 9.43983 13.0002C9.43983 14.9665 11.0341 16.5601 13.0004 16.5601C14.9668 16.5601 16.5604 14.9665 16.5604 13.0002C16.5604 11.0338 14.9666 9.4396 13.0003 9.4396H13.0004ZM13.0003 10.6888C14.2767 10.6888 15.3115 11.7235 15.3115 13C15.3115 14.2763 14.2767 15.3111 13.0003 15.3111C11.7239 15.3111 10.6892 14.2763 10.6892 13C10.6892 11.7235 11.7239 10.6888 13.0003 10.6888Z"
            fill="white" />
    </g>
</svg>