<svg xmlns="http://www.w3.org/2000/svg" width="26" height="26" viewBox="0 0 26 26" fill="none">
    <path fill-rule="evenodd" clip-rule="evenodd"
        d="M0 13C0 5.8203 5.8203 0 13 0C20.1797 0 26 5.8203 26 13C26 20.1797 20.1797 26 13 26C5.8203 26 0 20.1797 0 13Z"
        fill="#F68634" />
    <path fill-rule="evenodd" clip-rule="evenodd"
        d="M14.4303 9.85466C14.4303 9.08871 13.7849 8.46587 12.9914 8.46587C12.1985 8.46587 11.5524 9.08871 11.5524 9.85466C11.5524 10.62 12.1985 11.2433 12.9914 11.2433C13.7849 11.2433 14.4303 10.62 14.4303 9.85466ZM16.4666 9.85486C16.4666 11.7043 14.9083 13.2087 12.9913 13.2087C11.0747 13.2087 9.51603 11.7043 9.51603 9.85486C9.51603 8.00481 11.0747 6.5 12.9913 6.5C14.9083 6.5 16.4666 8.00481 16.4666 9.85486ZM16.4243 15.14C15.7959 15.5209 15.1137 15.7911 14.4062 15.9467L16.349 17.8222C16.747 18.2056 16.747 18.8282 16.349 19.212C15.9514 19.5958 15.307 19.5958 14.9099 19.212L12.9997 17.369L11.0913 19.212C10.8923 19.4037 10.6315 19.4996 10.3708 19.4996C10.1104 19.4996 9.85008 19.4037 9.65108 19.212C9.2535 18.8282 9.2535 18.206 9.65067 17.8222L11.5937 15.9467C10.8862 15.7911 10.204 15.5205 9.5756 15.14C9.10005 14.8505 8.95719 14.2441 9.25683 13.7847C9.55564 13.3246 10.184 13.1861 10.6604 13.4756C12.0831 14.3395 13.9159 14.3397 15.3395 13.4756C15.8159 13.1861 16.4441 13.3246 16.7435 13.7847C17.0431 14.2437 16.8999 14.8505 16.4243 15.14Z"
        fill="white" />
</svg>