<svg width="26" height="26" viewBox="0 0 26 26" fill="none" xmlns="http://www.w3.org/2000/svg">
    <path fill-rule="evenodd" clip-rule="evenodd"
        d="M0 13C0 5.8203 5.8203 0 13 0C20.1797 0 26 5.8203 26 13C26 20.1797 20.1797 26 13 26C5.8203 26 0 20.1797 0 13Z"
        fill="#1C293E" />
    <g clip-path="url(#clip0_2306_13984)">
        <path
            d="M15.7108 8.93018H6.5083V19.0666H9.06963V15.7689H13.9776L16.2168 19.0666H19.0849L16.6155 15.7537C17.3824 15.632 17.9346 15.3433 18.272 14.8874C18.6094 14.4315 18.7781 13.702 18.7781 12.7294V11.9696C18.7781 11.392 18.7168 10.9361 18.6094 10.5866C18.502 10.2371 18.318 9.93311 18.0572 9.65963C17.7811 9.40126 17.4745 9.21884 17.1064 9.0973C16.7383 8.99095 16.2781 8.93018 15.7106 8.93018H15.7108ZM15.2967 13.5348H9.06953V11.1641H15.2968C15.6495 11.1641 15.8949 11.2249 16.0176 11.3313C16.1401 11.4376 16.2168 11.6352 16.2168 11.924V12.775C16.2168 13.0789 16.1401 13.2765 16.0174 13.3829C15.8948 13.4892 15.6493 13.5348 15.2967 13.5348Z"
            fill="white" />
        <path
            d="M19.4328 8.31822C20.4226 8.31822 21.225 7.52317 21.225 6.54241C21.225 5.56166 20.4226 4.7666 19.4328 4.7666C18.443 4.7666 17.6406 5.56166 17.6406 6.54241C17.6406 7.52317 18.443 8.31822 19.4328 8.31822Z"
            fill="#F41240" />
    </g>
    <defs>
        <clipPath id="clip0_2306_13984">
            <rect width="14.7333" height="14.3" fill="white" transform="translate(6.5 4.7666)" />
        </clipPath>
    </defs>
</svg>