<svg xmlns="http://www.w3.org/2000/svg" width="26" height="26" viewBox="0 0 26 26" fill="none">
    <path fill-rule="evenodd" clip-rule="evenodd"
        d="M0 13C0 5.8203 5.8203 0 13 0C20.1797 0 26 5.8203 26 13C26 20.1797 20.1797 26 13 26C5.8203 26 0 20.1797 0 13Z"
        fill="#4C6C91" />
    <path fill-rule="evenodd" clip-rule="evenodd"
        d="M13.6798 17.2666C13.6798 17.2666 13.93 17.2393 14.0582 17.1041C14.1756 16.9803 14.1715 16.7466 14.1715 16.7466C14.1715 16.7466 14.1559 15.6555 14.672 15.4944C15.1807 15.3359 15.8338 16.5496 16.5269 17.0163C17.0505 17.3691 17.448 17.2919 17.448 17.2919L19.3002 17.2666C19.3002 17.2666 20.2687 17.208 19.8095 16.4604C19.7715 16.3991 19.5416 15.9071 18.4327 14.8965C17.271 13.8387 17.4269 14.0098 18.8254 12.1797C19.6773 11.0652 20.0177 10.3848 19.9113 10.0939C19.8102 9.81563 19.1835 9.88953 19.1835 9.88953L17.0987 9.90218C17.0987 9.90218 16.9441 9.88154 16.8294 9.94878C16.7175 10.0147 16.645 10.1685 16.645 10.1685C16.645 10.1685 16.3153 11.0306 15.8752 11.7642C14.9467 13.3114 14.5757 13.3933 14.4238 13.2974C14.0704 13.0731 14.1586 12.3974 14.1586 11.9174C14.1586 10.4175 14.3906 9.79233 13.7076 9.63056C13.4811 9.57663 13.3142 9.54135 12.7343 9.53536C11.9903 9.52803 11.361 9.53802 11.0042 9.70911C10.7668 9.82296 10.5837 10.0773 10.6956 10.0919C10.8333 10.1099 11.1453 10.1745 11.3108 10.3955C11.5244 10.6811 11.5169 11.3215 11.5169 11.3215C11.5169 11.3215 11.6397 13.0871 11.2301 13.3061C10.9493 13.4566 10.564 13.1496 9.73594 11.7456C9.31205 11.0266 8.99193 10.2317 8.99193 10.2317C8.99193 10.2317 8.93021 10.0833 8.81966 10.0034C8.68605 9.90684 8.49954 9.87688 8.49954 9.87688L6.51847 9.88953C6.51847 9.88953 6.22073 9.89752 6.11153 10.0247C6.01455 10.1372 6.10407 10.3709 6.10407 10.3709C6.10407 10.3709 7.65516 13.9332 9.41175 15.7287C11.0225 17.3744 12.851 17.2666 12.851 17.2666H13.6798Z"
        fill="white" />
</svg>