<svg xmlns="http://www.w3.org/2000/svg" width="26" height="26" viewBox="0 0 26 26" fill="none">
    <path fill-rule="evenodd" clip-rule="evenodd"
        d="M13 26C20.1797 26 26 20.1797 26 13C26 5.8203 20.1797 0 13 0C5.8203 0 0 5.8203 0 13C0 20.1797 5.8203 26 13 26Z"
        fill="#25D366" />
    <path fill-rule="evenodd" clip-rule="evenodd"
        d="M13.4285 20.2325H13.4253C12.1315 20.2321 10.8603 19.9075 9.7312 19.2916L5.6333 20.3666L6.72997 16.3609C6.05349 15.1885 5.69753 13.8587 5.69811 12.4963C5.69981 8.23419 9.16758 4.7666 13.4284 4.7666C15.4963 4.76749 17.4372 5.57253 18.8967 7.0337C20.3561 8.4948 21.1594 10.4369 21.1586 12.5024C21.1569 16.7636 17.6905 20.2308 13.4285 20.2325ZM9.92104 17.8921L10.1557 18.0314C11.1421 18.6168 12.2729 18.9265 13.4258 18.9269H13.4284C16.9697 18.9269 19.852 16.0446 19.8534 12.5019C19.8541 10.7851 19.1864 9.17085 17.9733 7.95638C16.7603 6.74191 15.1471 6.07276 13.431 6.07217C9.88694 6.07217 7.00465 8.9542 7.00325 12.4967C7.00275 13.7107 7.34243 14.893 7.98559 15.916L8.13836 16.1591L7.48929 18.53L9.92104 17.8921ZM17.3228 14.3409C17.2745 14.2603 17.1458 14.212 16.9526 14.1152C16.7594 14.0186 15.8098 13.5514 15.6327 13.4868C15.4557 13.4224 15.3269 13.3902 15.1982 13.5835C15.0694 13.7768 14.6993 14.212 14.5866 14.3409C14.4739 14.4697 14.3612 14.4859 14.1682 14.3892C13.975 14.2925 13.3526 14.0886 12.6149 13.4305C12.0406 12.9183 11.653 12.2859 11.5403 12.0925C11.4277 11.8991 11.5283 11.7946 11.625 11.6983C11.7119 11.6117 11.8182 11.4726 11.9148 11.3599C12.0113 11.2471 12.0435 11.1665 12.1079 11.0377C12.1723 10.9087 12.1401 10.796 12.0918 10.6993C12.0435 10.6026 11.6572 9.65187 11.4963 9.26512C11.3395 8.88848 11.1802 8.9395 11.0617 8.93355C10.9492 8.9279 10.8203 8.92671 10.6915 8.92671C10.5627 8.92671 10.3535 8.97505 10.1764 9.16843C9.99939 9.3618 9.50042 9.8291 9.50042 10.7798C9.50042 11.7305 10.1925 12.649 10.2891 12.7778C10.3857 12.9068 11.6511 14.8577 13.5887 15.6944C14.0495 15.8934 14.4093 16.0122 14.6898 16.1012C15.1525 16.2483 15.5736 16.2275 15.9064 16.1778C16.2775 16.1223 17.0491 15.7106 17.2102 15.2594C17.371 14.8081 17.371 14.4214 17.3228 14.3409Z"
        fill="#FDFDFD" />
</svg>