<svg xmlns="http://www.w3.org/2000/svg" width="14" height="14" viewBox="0 0 14 14">

    <path
        d="M6.99957 0C7.19781 0.000219884 7.38848 0.0761282 7.53263 0.212215C7.67678 0.348303 7.76353 0.534297 7.77514 0.732196C7.78676 0.930095 7.72237 1.12496 7.59514 1.27698C7.4679 1.429 7.28742 1.5267 7.09057 1.55011L6.99957 1.55556H3.11068C2.92017 1.55558 2.7363 1.62552 2.59394 1.75211C2.45158 1.8787 2.36063 2.05314 2.33834 2.24233L2.3329 2.33333V11.6667C2.33292 11.8572 2.40286 12.041 2.52946 12.1834C2.65605 12.3258 2.83048 12.4167 3.01968 12.439L3.11068 12.4444H6.61068C6.80892 12.4447 6.99959 12.5206 7.14374 12.6567C7.28789 12.7927 7.37464 12.9787 7.38626 13.1766C7.39787 13.3745 7.33349 13.5694 7.20625 13.7214C7.07901 13.8734 6.89853 13.9711 6.70168 13.9946L6.61068 14H3.11068C2.51551 14 1.94283 13.7726 1.50981 13.3643C1.07678 12.956 0.816149 12.3977 0.781233 11.8036L0.777344 11.6667V2.33333C0.777311 1.73817 1.00471 1.16549 1.41301 0.732464C1.82131 0.299439 2.37965 0.0388053 2.97379 0.00388898L3.11068 0H6.99957ZM11.4383 4.24978L13.6379 6.45011C13.7837 6.59597 13.8656 6.79376 13.8656 7C13.8656 7.20624 13.7837 7.40403 13.6379 7.54989L11.4383 9.75022C11.2924 9.89606 11.0945 9.97795 10.8882 9.97788C10.6819 9.97781 10.484 9.89578 10.3382 9.74983C10.1923 9.60389 10.1104 9.40599 10.1105 9.19967C10.1106 8.99335 10.1926 8.79551 10.3386 8.64967L11.2105 7.77778H6.99957C6.79329 7.77778 6.59546 7.69583 6.44959 7.54997C6.30373 7.40411 6.22179 7.20628 6.22179 7C6.22179 6.79372 6.30373 6.59589 6.44959 6.45003C6.59546 6.30417 6.79329 6.22222 6.99957 6.22222H11.2105L10.3386 5.35033C10.1926 5.20449 10.1106 5.00665 10.1105 4.80033C10.1104 4.59401 10.1923 4.39611 10.3382 4.25017C10.484 4.10422 10.6819 4.02219 10.8882 4.02212C11.0945 4.02205 11.2924 4.10394 11.4383 4.24978Z" />

</svg>