<svg xmlns="http://www.w3.org/2000/svg" width="22" height="22" viewBox="0 0 22 22">
    <path fill-rule="evenodd" clip-rule="evenodd"
        d="M1.08657 10.3414C3.85748 6.36948 7.43083 4.3125 10.9854 4.3125C15.1672 4.3125 18.7896 7.03977 20.9352 10.3536L20.9359 10.3547C21.0599 10.5473 21.1258 10.7716 21.1258 11.0006C21.1258 11.2293 21.0602 11.4531 20.9366 11.6454C18.7937 15.0009 15.1955 17.6875 10.9854 17.6875C6.73029 17.6875 3.20224 15.0073 1.06425 11.6611C0.937384 11.4642 0.871578 11.2341 0.875137 10.9999C0.878704 10.7651 0.951773 10.5367 1.08511 10.3435L1.08656 10.3414L1.08657 10.3414ZM1.90767 10.9122C1.88694 10.9425 1.87558 10.9783 1.87502 11.0151C1.87446 11.0521 1.88489 11.0885 1.90501 11.1197L1.9064 11.1218L1.9064 11.1218C3.9244 14.2807 7.17486 16.6875 10.9854 16.6875C14.7537 16.6875 18.0733 14.2713 20.0941 11.1069L20.095 11.1054C20.1151 11.0741 20.1258 11.0378 20.1258 11.0006C20.1258 10.9636 20.1152 10.9274 20.0952 10.8962C18.0676 7.76511 14.7216 5.3125 10.9854 5.3125C7.84244 5.3125 4.54551 7.13172 1.90767 10.9122Z" />
    <path fill-rule="evenodd" clip-rule="evenodd"
        d="M11 8.0625C9.37766 8.0625 8.0625 9.37766 8.0625 11C8.0625 12.6223 9.37766 13.9375 11 13.9375C12.6223 13.9375 13.9375 12.6223 13.9375 11C13.9375 9.37766 12.6223 8.0625 11 8.0625ZM7.0625 11C7.0625 8.82538 8.82538 7.0625 11 7.0625C13.1746 7.0625 14.9375 8.82538 14.9375 11C14.9375 13.1746 13.1746 14.9375 11 14.9375C8.82538 14.9375 7.0625 13.1746 7.0625 11Z" />
</svg>