<svg xmlns="http://www.w3.org/2000/svg" width="24" height="24" viewBox="0 0 24 24">
    <path fill-rule="evenodd" clip-rule="evenodd"
        d="M16.734 1.30001L16.7352 1.3C18.6029 1.3 20.383 2.07486 21.6859 3.44146L21.687 3.44258C22.9826 4.80763 23.7032 6.6251 23.6998 8.51331C23.7036 10.4014 22.9834 12.2189 21.6882 13.5842L21.6866 13.5858C20.809 14.505 19.934 15.4437 19.0549 16.3866C17.2693 18.3021 15.4674 20.2352 13.5944 22.0576L13.59 22.0618C12.6719 22.9397 11.2156 22.9084 10.3374 21.9895L2.31271 13.587C-0.370574 10.777 -0.371266 6.2522 2.31125 3.44255C2.94921 2.76661 3.71672 2.22803 4.56755 1.85979C5.41909 1.49125 6.33612 1.30112 7.26299 1.30112C8.18986 1.30112 9.10689 1.49125 9.95842 1.85979C10.7156 2.18748 11.4067 2.65006 11.9993 3.2243C12.5923 2.65088 13.2834 2.18877 14.0403 1.86104C14.8913 1.4925 15.8076 1.3016 16.734 1.30001ZM20.6719 4.40672C19.6275 3.3117 18.2116 2.70017 16.7358 2.7C16.0005 2.70135 15.2729 2.8529 14.5966 3.14575C13.9201 3.43868 13.3089 3.86705 12.7998 4.40543L12.7968 4.4086L12.5053 4.71304C12.3734 4.85078 12.191 4.92875 12.0003 4.92893C11.8096 4.92911 11.6271 4.85148 11.4949 4.71399L11.1978 4.4048C10.6895 3.86592 10.0786 3.43732 9.40235 3.14462C8.72608 2.85193 7.99827 2.70112 7.26299 2.70112C6.52771 2.70112 5.7999 2.85193 5.12362 3.14462C4.44733 3.43732 3.83642 3.8659 3.32816 4.40478L3.32508 4.40802C1.15809 6.67633 1.15793 10.3505 3.32516 12.62M3.32516 12.62L11.3496 21.0223C11.3497 21.0223 11.3496 21.0222 11.3496 21.0223C11.6919 21.3803 12.2604 21.3942 12.6205 21.0518C14.469 19.2531 16.2285 17.3654 17.9989 15.466C18.8835 14.517 19.7708 13.565 20.6734 12.6197C21.7195 11.5165 22.3032 10.0455 22.2998 8.51499V8.51201C22.3029 6.98113 21.7187 5.50985 20.6719 4.40672" />
</svg>