<svg xmlns="http://www.w3.org/2000/svg" width="24" height="24" viewBox="0 0 24 24">
  <path d="M23 8.51343C23.0038 10.2232 22.3517 11.8679 21.1806 13.1024C18.4954 15.9147 15.8906 18.8469 13.1065 21.5559C12.4674 22.167 11.4542 22.1448 10.8437 21.5059L2.81915 13.1035C0.393618 10.5635 0.393618 6.4634 2.81915 3.92447C3.39241 3.31668 4.08189 2.83282 4.8458 2.5022C5.60971 2.17159 6.43212 2.00111 7.2632 2.00111C8.09427 2.00111 8.91669 2.17159 9.6806 2.5022C10.4445 2.83282 11.134 3.31668 11.7073 3.92447L11.9999 4.22892L12.2914 3.92447C12.8653 3.31751 13.5549 2.83412 14.3186 2.50339C15.0824 2.17266 15.9045 2.00143 16.7354 2C18.4074 2 20.0057 2.69334 21.1795 3.92447C22.351 5.15876 23.0035 6.80353 23 8.51343Z"  stroke-width="1.4" stroke-linejoin="round"/>
</svg>