<svg width="25" height="25" viewBox="0 0 25 25" xmlns="http://www.w3.org/2000/svg">

    <path
        d="M12.525 0C7.02572 0 2.55176 4.34158 2.55176 9.67803C2.55176 11.8963 3.34288 14.059 4.78111 15.7771C4.79183 15.7932 4.80335 15.8089 4.81569 15.8242L11.9906 24.7442C12.1191 24.9039 12.3162 24.9973 12.525 24.9973C12.7339 24.9973 12.9309 24.9039 13.0594 24.7441L20.2688 15.7772C20.2713 15.774 20.2737 15.7709 20.2762 15.7678C21.7092 14.0518 22.4982 11.8902 22.4982 9.67803C22.4983 4.34158 18.0244 0 12.525 0ZM19.2083 14.9568C19.1997 14.9671 19.1916 14.9774 19.1837 14.988L12.5249 23.2702L5.93332 15.0755C5.91691 15.0495 5.89847 15.0244 5.87813 15.0005C4.60735 13.5079 3.90755 11.6177 3.90755 9.67803C3.90755 5.06704 7.77339 1.31566 12.525 1.31566C17.2767 1.31566 21.1425 5.06704 21.1426 9.67803C21.1426 11.597 20.4556 13.4717 19.2083 14.9568Z" />
    <path
        d="M18.3765 8.14204C18.2706 7.79355 17.8935 7.59447 17.5345 7.69724C17.1754 7.80007 16.9701 8.16586 17.0761 8.51434C17.5689 10.1355 17.1108 11.8842 15.8805 13.0781C14.9843 13.9478 13.7927 14.4268 12.5252 14.4268C11.2577 14.4268 10.0661 13.9478 9.16981 13.078C8.27354 12.2083 7.77998 11.052 7.77998 9.82197C7.77998 8.59197 8.27354 7.43559 9.16988 6.56592C10.4014 5.37079 12.205 4.92664 13.8769 5.40691C14.236 5.51013 14.6131 5.31125 14.7193 4.96289C14.8256 4.61454 14.6207 4.24849 14.2617 4.14539C12.1129 3.52816 9.79449 4.09921 8.21123 5.63559C7.05896 6.75382 6.42432 8.24059 6.42432 9.82197C6.42432 11.4034 7.05889 12.8901 8.21123 14.0083C9.36357 15.1265 10.8957 15.7424 12.5253 15.7424C14.155 15.7424 15.687 15.1265 16.8394 14.0084C18.421 12.4736 19.01 10.2257 18.3765 8.14204Z" />
    <path
        d="M16.8514 5.64717L16.8394 5.63546C16.5746 5.37855 16.1454 5.37855 15.8807 5.63546C15.6159 5.89243 15.6159 6.30895 15.8807 6.56579L15.8927 6.5775C16.025 6.70599 16.1985 6.7702 16.372 6.7702C16.5455 6.7702 16.719 6.70599 16.8514 6.5775C17.1161 6.32059 17.1161 5.90408 16.8514 5.64717Z" />

</svg>