<svg xmlns="http://www.w3.org/2000/svg" width="50" height="50" viewBox="0 0 50 50" fill="none">
  <path d="M3.64583 6.25H46.3542C48.3667 6.25 50 7.88333 50 9.89583V39.0625C50 40.0294 49.6159 40.9568 48.9322 41.6405C48.2484 42.3242 47.3211 42.7083 46.3542 42.7083H3.64583C2.6789 42.7083 1.75157 42.3242 1.06784 41.6405C0.384113 40.9568 0 40.0294 0 39.0625L0 9.89583C0 7.88333 1.63333 6.25 3.64583 6.25ZM3.125 15.4417V39.0625C3.125 39.35 3.35833 39.5833 3.64583 39.5833H46.3542C46.4923 39.5833 46.6248 39.5285 46.7225 39.4308C46.8201 39.3331 46.875 39.2006 46.875 39.0625V15.4417L27.0417 28.8438C25.8083 29.6771 24.1917 29.6771 22.9583 28.8438L3.125 15.4417ZM3.125 9.89583V11.6708L24.7083 26.2542C24.7945 26.3124 24.896 26.3435 25 26.3435C25.104 26.3435 25.2055 26.3124 25.2917 26.2542L46.875 11.6708V9.89583C46.875 9.7577 46.8201 9.62522 46.7225 9.52755C46.6248 9.42987 46.4923 9.375 46.3542 9.375H3.64583C3.5077 9.375 3.37522 9.42987 3.27755 9.52755C3.17987 9.62522 3.125 9.7577 3.125 9.89583Z" fill="#D81619"/>
</svg>