<svg width="88" height="88" viewBox="0 0 88 88" fill="none" xmlns="http://www.w3.org/2000/svg">
    <g clip-path="url(#clip0_2322_7495)">
        <circle cx="44" cy="44" r="30" fill="white" />
        <path
            d="M44 0C19.6998 0 0 19.6995 0 44C0 68.3005 19.6998 88 44 88C68.3002 88 88 68.3005 88 44C88 19.6995 68.3002 0 44 0ZM59.2075 46.3323L37.2075 60.0823C36.7623 60.3603 36.2562 60.5 35.75 60.5C35.2914 60.5 34.8322 60.3859 34.4166 60.1549C33.5424 59.6702 33 58.7503 33 57.75V30.25C33 29.2497 33.5424 28.3298 34.4166 27.8451C35.2908 27.3577 36.3596 27.3872 37.2075 27.9177L59.2075 41.6677C60.0112 42.1712 60.5 43.0521 60.5 44C60.5 44.9479 60.0112 45.8289 59.2075 46.3323Z"
            fill="#D81619" />
    </g>
    <defs>
        <clipPath id="clip0_2322_7495">
            <rect width="88" height="88" fill="white" />
        </clipPath>
    </defs>
</svg>