<svg xmlns="http://www.w3.org/2000/svg" width="20" height="20" viewBox="0 0 20 20" >
  <path d="M8.59082 0.0810547C3.89079 0.0811701 0.0810547 3.89174 0.0810547 8.5918C0.0811701 13.2918 3.89086 17.1014 8.59082 17.1016C10.6898 17.1016 12.6097 16.3397 14.0938 15.0801L18.9551 19.9424L19.9453 18.9531L15.084 14.0908C16.3417 12.6076 17.1015 10.6888 17.1016 8.5918C17.1016 3.89167 13.2909 0.0810547 8.59082 0.0810547ZM8.59082 1.48145C12.5177 1.48145 15.7012 4.66487 15.7012 8.5918C15.7011 12.5186 12.5177 15.7021 8.59082 15.7021C4.66406 15.702 1.48058 12.5186 1.48047 8.5918C1.48047 4.66494 4.66399 1.48156 8.59082 1.48145Z" />
</svg>