<svg xmlns="http://www.w3.org/2000/svg" width="20" height="20" viewBox="0 0 20 20">

    <path fill-rule="evenodd" clip-rule="evenodd"
        d="M15.7592 8.64866C15.7592 4.72173 12.5758 1.53833 8.64885 1.53833C4.72192 1.53833 1.53851 4.72173 1.53851 8.64866C1.53851 12.5756 4.72192 15.759 8.64885 15.759C12.5758 15.759 15.7592 12.5756 15.7592 8.64866ZM8.64885 0.138327C13.349 0.138327 17.1592 3.94853 17.1592 8.64866C17.1592 10.7468 16.3999 12.6676 15.1412 14.1512L20 19.01L19.0101 20L14.1512 15.1412C12.6676 16.3998 10.7469 17.159 8.64885 17.159C3.94872 17.159 0.138512 13.3488 0.138512 8.64866C0.138512 3.94853 3.94872 0.138327 8.64885 0.138327Z" />

</svg>