<svg xmlns="http://www.w3.org/2000/svg" width="39" height="38" viewBox="0 0 39 38" >
  <path fill-rule="evenodd" clip-rule="evenodd" d="M25.25 7.91667C25.25 5.8456 26.9289 4.16667 29 4.16667C31.0711 4.16667 32.75 5.8456 32.75 7.91667C32.75 9.98774 31.0711 11.6667 29 11.6667C27.7957 11.6667 26.7241 11.099 26.038 10.2167C26.0272 10.0729 25.9851 9.9291 25.9088 9.79554C25.8247 9.64848 25.709 9.53086 25.5752 9.44635C25.3662 8.97922 25.25 8.46151 25.25 7.91667ZM23.6204 9.95143C23.381 9.31888 23.25 8.63308 23.25 7.91667C23.25 4.74103 25.8244 2.16667 29 2.16667C32.1756 2.16667 34.75 4.74103 34.75 7.91667C34.75 11.0923 32.1756 13.6667 29 13.6667C27.2588 13.6667 25.6983 12.8927 24.6439 11.6701L15.3792 16.9642C15.6188 17.597 15.75 18.2832 15.75 19C15.75 19.7168 15.6188 20.403 15.3792 21.0358L24.6439 26.3299C25.6983 25.1073 27.2588 24.3333 29 24.3333C32.1756 24.3333 34.75 26.9077 34.75 30.0833C34.75 33.259 32.1756 35.8333 29 35.8333C25.8244 35.8333 23.25 33.259 23.25 30.0833C23.25 29.3669 23.381 28.6811 23.6204 28.0486L14.3553 22.7543C13.3009 23.9764 11.7408 24.75 10 24.75C6.82436 24.75 4.25 22.1756 4.25 19C4.25 15.8244 6.82436 13.25 10 13.25C11.7408 13.25 13.3009 14.0236 14.3554 15.2457L23.6204 9.95143ZM12.9596 16.6968C12.2733 15.8163 11.2028 15.25 10 15.25C7.92893 15.25 6.25 16.9289 6.25 19C6.25 21.0711 7.92893 22.75 10 22.75C11.2028 22.75 12.2733 22.1837 12.9596 21.3032C12.9699 21.1583 13.0121 21.0134 13.089 20.8789C13.1736 20.7307 13.2905 20.6124 13.4257 20.5277C13.6341 20.0611 13.75 19.5441 13.75 19C13.75 18.4559 13.6341 17.9389 13.4257 17.4723C13.2905 17.3877 13.1736 17.2694 13.089 17.1211C13.0121 16.9866 12.9699 16.8417 12.9596 16.6968ZM25.5752 28.5537C25.3662 29.0208 25.25 29.5385 25.25 30.0833C25.25 32.1544 26.9289 33.8333 29 33.8333C31.0711 33.8333 32.75 32.1544 32.75 30.0833C32.75 28.0123 31.0711 26.3333 29 26.3333C27.7957 26.3333 26.7241 26.901 26.038 27.7833C26.0272 27.9272 25.9851 28.0709 25.9088 28.2045C25.8247 28.3515 25.709 28.4692 25.5752 28.5537Z" />
</svg>