<svg xmlns="http://www.w3.org/2000/svg" width="106" height="128" viewBox="0 0 106 128" fill="none">
  
    <path d="M-12 0H-36C-39.476 0 -42 2.524 -42 6V122C-42 125.476 -39.476 128 -36 128H100C103.476 128 106 125.476 106 122V6C106 2.524 103.476 0 100 0H-12ZM-38 122V6C-38 4.748 -37.252 4 -36 4H-14V124H-36C-37.252 124 -38 123.252 -38 122ZM-10 124V4H74V124H-10ZM102 6V122C102 123.252 101.252 124 100 124H78V4H100C101.252 4 102 4.748 102 6Z" fill="white"/>
    <path d="M17.108 40.336C16.8065 40.1345 16.456 40.0188 16.0939 40.0012C15.7317 39.9836 15.3716 40.0647 15.052 40.236C14.7335 40.4074 14.4675 40.662 14.2823 40.9726C14.097 41.2833 13.9995 41.6383 14 42V90C14.0002 90.3618 14.0985 90.7167 14.2845 91.027C14.4704 91.3373 14.7371 91.5914 15.056 91.7622C15.3749 91.9329 15.7342 92.014 16.0956 91.9967C16.4569 91.9794 16.8068 91.8644 17.108 91.664L53.108 67.664C53.3819 67.4814 53.6065 67.2339 53.7618 66.9436C53.9172 66.6534 53.9985 66.3292 53.9985 66C53.9985 65.6708 53.9172 65.3466 53.7618 65.0564C53.6065 64.7661 53.3819 64.5186 53.108 64.336L17.108 40.336ZM18 86.264V45.736L48.396 66L18 86.264ZM-22 32H-30C-30.5304 32 -31.0391 32.2107 -31.4142 32.5858C-31.7893 32.9609 -32 33.4696 -32 34C-32 34.5304 -31.7893 35.0391 -31.4142 35.4142C-31.0391 35.7893 -30.5304 36 -30 36H-22C-21.4696 36 -20.9609 35.7893 -20.5858 35.4142C-20.2107 35.0391 -20 34.5304 -20 34C-20 33.4696 -20.2107 32.9609 -20.5858 32.5858C-20.9609 32.2107 -21.4696 32 -22 32ZM-30 20H-22C-21.4696 20 -20.9609 19.7893 -20.5858 19.4142C-20.2107 19.0391 -20 18.5304 -20 18C-20 17.4696 -20.2107 16.9609 -20.5858 16.5858C-20.9609 16.2107 -21.4696 16 -22 16H-30C-30.5304 16 -31.0391 16.2107 -31.4142 16.5858C-31.7893 16.9609 -32 17.4696 -32 18C-32 18.5304 -31.7893 19.0391 -31.4142 19.4142C-31.0391 19.7893 -30.5304 20 -30 20ZM-22 48H-30C-30.5304 48 -31.0391 48.2107 -31.4142 48.5858C-31.7893 48.9609 -32 49.4696 -32 50C-32 50.5304 -31.7893 51.0391 -31.4142 51.4142C-31.0391 51.7893 -30.5304 52 -30 52H-22C-21.4696 52 -20.9609 51.7893 -20.5858 51.4142C-20.2107 51.0391 -20 50.5304 -20 50C-20 49.4696 -20.2107 48.9609 -20.5858 48.5858C-20.9609 48.2107 -21.4696 48 -22 48ZM-22 64H-30C-30.5304 64 -31.0391 64.2107 -31.4142 64.5858C-31.7893 64.9609 -32 65.4696 -32 66C-32 66.5304 -31.7893 67.0391 -31.4142 67.4142C-31.0391 67.7893 -30.5304 68 -30 68H-22C-21.4696 68 -20.9609 67.7893 -20.5858 67.4142C-20.2107 67.0391 -20 66.5304 -20 66C-20 65.4696 -20.2107 64.9609 -20.5858 64.5858C-20.9609 64.2107 -21.4696 64 -22 64ZM-22 80H-30C-30.5304 80 -31.0391 80.2107 -31.4142 80.5858C-31.7893 80.9609 -32 81.4696 -32 82C-32 82.5304 -31.7893 83.0391 -31.4142 83.4142C-31.0391 83.7893 -30.5304 84 -30 84H-22C-21.4696 84 -20.9609 83.7893 -20.5858 83.4142C-20.2107 83.0391 -20 82.5304 -20 82C-20 81.4696 -20.2107 80.9609 -20.5858 80.5858C-20.9609 80.2107 -21.4696 80 -22 80ZM-22 96H-30C-30.5304 96 -31.0391 96.2107 -31.4142 96.5858C-31.7893 96.9609 -32 97.4696 -32 98C-32 98.5304 -31.7893 99.0391 -31.4142 99.4142C-31.0391 99.7893 -30.5304 100 -30 100H-22C-21.4696 100 -20.9609 99.7893 -20.5858 99.4142C-20.2107 99.0391 -20 98.5304 -20 98C-20 97.4696 -20.2107 96.9609 -20.5858 96.5858C-20.9609 96.2107 -21.4696 96 -22 96ZM-22 112H-30C-30.5304 112 -31.0391 112.211 -31.4142 112.586C-31.7893 112.961 -32 113.47 -32 114C-32 114.53 -31.7893 115.039 -31.4142 115.414C-31.0391 115.789 -30.5304 116 -30 116H-22C-21.4696 116 -20.9609 115.789 -20.5858 115.414C-20.2107 115.039 -20 114.53 -20 114C-20 113.47 -20.2107 112.961 -20.5858 112.586C-20.9609 112.211 -21.4696 112 -22 112ZM86 36H94C94.5304 36 95.0391 35.7893 95.4142 35.4142C95.7893 35.0391 96 34.5304 96 34C96 33.4696 95.7893 32.9609 95.4142 32.5858C95.0391 32.2107 94.5304 32 94 32H86C85.4696 32 84.9609 32.2107 84.5858 32.5858C84.2107 32.9609 84 33.4696 84 34C84 34.5304 84.2107 35.0391 84.5858 35.4142C84.9609 35.7893 85.4696 36 86 36ZM86 20H94C94.5304 20 95.0391 19.7893 95.4142 19.4142C95.7893 19.0391 96 18.5304 96 18C96 17.4696 95.7893 16.9609 95.4142 16.5858C95.0391 16.2107 94.5304 16 94 16H86C85.4696 16 84.9609 16.2107 84.5858 16.5858C84.2107 16.9609 84 17.4696 84 18C84 18.5304 84.2107 19.0391 84.5858 19.4142C84.9609 19.7893 85.4696 20 86 20ZM86 52H94C94.5304 52 95.0391 51.7893 95.4142 51.4142C95.7893 51.0391 96 50.5304 96 50C96 49.4696 95.7893 48.9609 95.4142 48.5858C95.0391 48.2107 94.5304 48 94 48H86C85.4696 48 84.9609 48.2107 84.5858 48.5858C84.2107 48.9609 84 49.4696 84 50C84 50.5304 84.2107 51.0391 84.5858 51.4142C84.9609 51.7893 85.4696 52 86 52ZM86 68H94C94.5304 68 95.0391 67.7893 95.4142 67.4142C95.7893 67.0391 96 66.5304 96 66C96 65.4696 95.7893 64.9609 95.4142 64.5858C95.0391 64.2107 94.5304 64 94 64H86C85.4696 64 84.9609 64.2107 84.5858 64.5858C84.2107 64.9609 84 65.4696 84 66C84 66.5304 84.2107 67.0391 84.5858 67.4142C84.9609 67.7893 85.4696 68 86 68ZM86 84H94C94.5304 84 95.0391 83.7893 95.4142 83.4142C95.7893 83.0391 96 82.5304 96 82C96 81.4696 95.7893 80.9609 95.4142 80.5858C95.0391 80.2107 94.5304 80 94 80H86C85.4696 80 84.9609 80.2107 84.5858 80.5858C84.2107 80.9609 84 81.4696 84 82C84 82.5304 84.2107 83.0391 84.5858 83.4142C84.9609 83.7893 85.4696 84 86 84ZM86 100H94C94.5304 100 95.0391 99.7893 95.4142 99.4142C95.7893 99.0391 96 98.5304 96 98C96 97.4696 95.7893 96.9609 95.4142 96.5858C95.0391 96.2107 94.5304 96 94 96H86C85.4696 96 84.9609 96.2107 84.5858 96.5858C84.2107 96.9609 84 97.4696 84 98C84 98.5304 84.2107 99.0391 84.5858 99.4142C84.9609 99.7893 85.4696 100 86 100ZM94 112H86C85.4696 112 84.9609 112.211 84.5858 112.586C84.2107 112.961 84 113.47 84 114C84 114.53 84.2107 115.039 84.5858 115.414C84.9609 115.789 85.4696 116 86 116H94C94.5304 116 95.0391 115.789 95.4142 115.414C95.7893 115.039 96 114.53 96 114C96 113.47 95.7893 112.961 95.4142 112.586C95.0391 112.211 94.5304 112 94 112Z" fill="white"/>
 
</svg>