<svg width="38" height="48" viewBox="0 0 38 48" fill="none" xmlns="http://www.w3.org/2000/svg">
    <g clip-path="url(#clip0_361_389)">
        <path
            d="M19.0479 0C8.59917 0 0.0986328 8.33583 0.0986328 18.5818C0.0986328 22.8409 1.60176 26.9933 4.33441 30.292C4.35476 30.323 4.37666 30.3532 4.40011 30.3825L18.0324 47.5089C18.2765 47.8156 18.6511 47.9948 19.0479 47.9948C19.4446 47.9948 19.8191 47.8155 20.0632 47.5086L33.761 30.2922C33.7657 30.2861 33.7704 30.2802 33.775 30.2741C36.4977 26.9795 37.9969 22.8292 37.9969 18.5818C37.9971 8.33583 29.4966 0 19.0479 0ZM31.7461 28.7171C31.7297 28.7368 31.7143 28.7567 31.6993 28.777L19.0476 44.6788L6.5236 28.9449C6.49242 28.895 6.45738 28.8469 6.41874 28.8009C4.00426 25.9352 2.67465 22.306 2.67465 18.5818C2.67465 9.72872 10.0197 2.52606 19.0479 2.52606C28.076 2.52606 35.4211 9.72872 35.4212 18.5818C35.4212 22.2662 34.116 25.8657 31.7461 28.7171Z"
            fill="#D81619" />
        <path
            d="M30.1652 15.6328C29.9639 14.9637 29.2476 14.5814 28.5654 14.7788C27.8831 14.9762 27.4931 15.6785 27.6945 16.3476C28.6308 19.4601 27.7604 22.8177 25.4228 25.11C23.7201 26.7799 21.4559 27.6995 19.0477 27.6995C16.6396 27.6995 14.3754 26.7799 12.6725 25.1099C10.9696 23.44 10.0318 21.2199 10.0318 18.8583C10.0318 16.4966 10.9696 14.2764 12.6726 12.6066C15.0125 10.312 18.4393 9.45922 21.6159 10.3813C22.2982 10.5795 23.0147 10.1977 23.2165 9.52882C23.4185 8.85997 23.0291 8.15715 22.3472 7.95922C18.2643 6.77412 13.8594 7.87054 10.8512 10.8204C8.66188 12.9674 7.45605 15.822 7.45605 18.8583C7.45605 21.8945 8.66175 24.749 10.8512 26.896C13.0406 29.043 15.9517 30.2254 19.048 30.2254C22.1443 30.2254 25.0552 29.043 27.2447 26.8962C30.2497 23.9494 31.3689 19.6334 30.1652 15.6328Z"
            fill="#D81619" />
        <path
            d="M27.2675 10.8426L27.2447 10.8201C26.7416 10.3269 25.926 10.3269 25.4232 10.8201C24.9201 11.3135 24.9201 12.1132 25.4232 12.6064L25.446 12.6289C25.6974 12.8756 26.027 12.9988 26.3567 12.9988C26.6863 12.9988 27.0159 12.8756 27.2675 12.6289C27.7704 12.1356 27.7704 11.3359 27.2675 10.8426Z"
            fill="#D81619" />
    </g>
    <defs>
        <clipPath id="clip0_361_389">
            <rect width="38" height="48" fill="white" />
        </clipPath>
    </defs>
</svg>