<svg width="269" height="52" viewBox="0 0 269 52" fill="none" xmlns="http://www.w3.org/2000/svg">
    <path
        d="M91.474 7.514H83.554L83.576 21H81.398V5.6H91.496L91.474 7.514ZM101.205 17.15H93.0209L91.3269 21H89.0609L96.0349 5.6H98.2129L105.209 21H102.899L101.205 17.15ZM100.435 15.39L97.1129 7.844L93.7909 15.39H100.435ZM120.515 5.6V21H118.359V7.514H111.539L111.385 12.024C111.312 14.1507 111.136 15.874 110.857 17.194C110.593 18.514 110.168 19.5113 109.581 20.186C108.995 20.846 108.203 21.176 107.205 21.176C106.751 21.176 106.289 21.1173 105.819 21L105.973 19.042C106.208 19.1007 106.443 19.13 106.677 19.13C107.308 19.13 107.814 18.8807 108.195 18.382C108.577 17.8687 108.863 17.106 109.053 16.094C109.244 15.082 109.369 13.7473 109.427 12.09L109.669 5.6H120.515ZM136.488 19.086V21H125.312V5.6H136.18V7.514H127.512V12.244H135.234V14.114H127.512V19.086H136.488ZM145.949 5.6C147.944 5.6 149.513 6.07667 150.657 7.03C151.801 7.98333 152.373 9.296 152.373 10.968C152.373 12.64 151.801 13.9527 150.657 14.906C149.513 15.8593 147.944 16.336 145.949 16.336H142.143V21H139.943V5.6H145.949ZM145.883 14.422C147.276 14.422 148.34 14.1287 149.073 13.542C149.806 12.9407 150.173 12.0827 150.173 10.968C150.173 9.85333 149.806 9.00267 149.073 8.416C148.34 7.81467 147.276 7.514 145.883 7.514H142.143V14.422H145.883ZM166.609 19.086V21H155.433V5.6H166.301V7.514H157.633V12.244H165.355V14.114H157.633V19.086H166.609ZM181.178 5.6V21H179.022V16.512H174.776C174.512 16.512 174.314 16.5047 174.182 16.49L171.102 21H168.77L172.18 16.116C171.08 15.7493 170.237 15.1407 169.65 14.29C169.063 13.4247 168.77 12.376 168.77 11.144C168.77 9.39867 169.327 8.042 170.442 7.074C171.571 6.09133 173.089 5.6 174.996 5.6H181.178ZM170.992 11.122C170.992 12.266 171.322 13.146 171.982 13.762C172.657 14.3633 173.647 14.664 174.952 14.664H179.022V7.514H175.084C173.764 7.514 172.752 7.822 172.048 8.438C171.344 9.054 170.992 9.94867 170.992 11.122ZM206.17 21L206.148 9.78L200.582 19.13H199.57L194.004 9.846V21H191.892V5.6H193.696L200.12 16.424L206.456 5.6H208.26L208.282 21H206.17ZM220.006 21.176C218.451 21.176 217.05 20.8387 215.804 20.164C214.557 19.4747 213.574 18.5287 212.856 17.326C212.152 16.1233 211.8 14.7813 211.8 13.3C211.8 11.8187 212.152 10.4767 212.856 9.274C213.574 8.07133 214.557 7.13267 215.804 6.458C217.05 5.76867 218.451 5.424 220.006 5.424C221.546 5.424 222.939 5.76867 224.186 6.458C225.432 7.13267 226.408 8.07133 227.112 9.274C227.816 10.462 228.168 11.804 228.168 13.3C228.168 14.796 227.816 16.1453 227.112 17.348C226.408 18.536 225.432 19.4747 224.186 20.164C222.939 20.8387 221.546 21.176 220.006 21.176ZM220.006 19.218C221.135 19.218 222.147 18.9613 223.042 18.448C223.951 17.9347 224.662 17.2307 225.176 16.336C225.704 15.4267 225.968 14.4147 225.968 13.3C225.968 12.1853 225.704 11.1807 225.176 10.286C224.662 9.37667 223.951 8.66533 223.042 8.152C222.147 7.63867 221.135 7.382 220.006 7.382C218.876 7.382 217.85 7.63867 216.926 8.152C216.016 8.66533 215.298 9.37667 214.77 10.286C214.256 11.1807 214 12.1853 214 13.3C214 14.4147 214.256 15.4267 214.77 16.336C215.298 17.2307 216.016 17.9347 216.926 18.448C217.85 18.9613 218.876 19.218 220.006 19.218ZM245.968 19.086V24.366H243.922V21H231.25L231.228 24.366H229.182L229.204 19.086H229.952C230.92 19.0273 231.602 18.2647 231.998 16.798C232.394 15.3167 232.636 13.234 232.724 10.55L232.878 5.6H243.702V19.086H245.968ZM234.66 10.748C234.587 12.9187 234.411 14.7153 234.132 16.138C233.868 17.5607 233.436 18.5433 232.834 19.086H241.524V7.514H234.77L234.66 10.748ZM255.73 10.968C257.563 10.968 258.964 11.3787 259.932 12.2C260.915 13.0213 261.406 14.2313 261.406 15.83C261.406 17.5167 260.878 18.8 259.822 19.68C258.781 20.56 257.285 21 255.334 21H248.976V5.6H251.154V10.968H255.73ZM255.246 19.262C256.522 19.262 257.497 18.976 258.172 18.404C258.861 17.8173 259.206 16.974 259.206 15.874C259.206 13.762 257.886 12.706 255.246 12.706H251.154V19.262H255.246ZM263.848 5.6H266.026V21H263.848V5.6Z"
        fill="#202425" />
    <path
        d="M81.652 40V30.2H85.726C86.762 30.2 87.574 30.4147 88.162 30.844C88.7593 31.264 89.058 31.8847 89.058 32.706C89.058 33.518 88.7733 34.134 88.204 34.554C87.6347 34.9647 86.888 35.17 85.964 35.17L86.202 34.82C87.294 34.82 88.1247 35.0347 88.694 35.464C89.2633 35.8933 89.548 36.5233 89.548 37.354C89.548 38.194 89.2493 38.8473 88.652 39.314C88.064 39.7713 87.1773 40 85.992 40H81.652ZM82.674 39.174H85.992C86.8227 39.174 87.4527 39.02 87.882 38.712C88.3113 38.404 88.526 37.928 88.526 37.284C88.526 36.6493 88.3113 36.1827 87.882 35.884C87.4527 35.5853 86.8227 35.436 85.992 35.436H82.674V39.174ZM82.674 34.638H85.67C86.426 34.638 87.0047 34.4887 87.406 34.19C87.8167 33.882 88.022 33.4293 88.022 32.832C88.022 32.2347 87.8167 31.7867 87.406 31.488C87.0047 31.18 86.426 31.026 85.67 31.026H82.674V34.638ZM99.0683 40V32.65H100.062V40H99.0683ZM94.9943 35.24C95.9183 35.2493 96.623 35.4547 97.1083 35.856C97.5937 36.2573 97.8363 36.836 97.8363 37.592C97.8363 38.376 97.575 38.978 97.0523 39.398C96.5297 39.818 95.783 40.0233 94.8123 40.014L91.9003 40V32.65H92.8943V35.212L94.9943 35.24ZM94.7423 39.258C95.433 39.2673 95.951 39.132 96.2963 38.852C96.651 38.5627 96.8283 38.1427 96.8283 37.592C96.8283 37.0413 96.6557 36.64 96.3103 36.388C95.965 36.1267 95.4423 35.9913 94.7423 35.982L92.8943 35.954V39.23L94.7423 39.258ZM106.197 40.084C105.599 40.084 105.067 39.986 104.601 39.79C104.143 39.594 103.751 39.2953 103.425 38.894C103.098 38.4927 102.851 37.998 102.683 37.41C102.515 36.8127 102.431 36.122 102.431 35.338C102.431 34.638 102.496 34.0267 102.627 33.504C102.757 32.972 102.939 32.5147 103.173 32.132C103.406 31.7493 103.677 31.4273 103.985 31.166C104.302 30.8953 104.643 30.6807 105.007 30.522C105.38 30.354 105.763 30.228 106.155 30.144L109.459 29.374L109.627 30.298L106.519 30.998C106.323 31.0447 106.085 31.11 105.805 31.194C105.534 31.278 105.254 31.404 104.965 31.572C104.685 31.74 104.423 31.9733 104.181 32.272C103.938 32.5707 103.742 32.958 103.593 33.434C103.453 33.9007 103.383 34.484 103.383 35.184C103.383 35.3333 103.387 35.4547 103.397 35.548C103.406 35.632 103.415 35.7253 103.425 35.828C103.443 35.9213 103.457 36.0613 103.467 36.248L103.033 35.884C103.135 35.3147 103.345 34.82 103.663 34.4C103.98 33.9707 104.377 33.6393 104.853 33.406C105.338 33.1633 105.875 33.042 106.463 33.042C107.144 33.042 107.751 33.1913 108.283 33.49C108.815 33.7793 109.23 34.1853 109.529 34.708C109.837 35.2307 109.991 35.8373 109.991 36.528C109.991 37.2093 109.832 37.8207 109.515 38.362C109.207 38.9033 108.768 39.328 108.199 39.636C107.629 39.9347 106.962 40.084 106.197 40.084ZM106.309 39.258C106.831 39.258 107.293 39.1413 107.695 38.908C108.096 38.6653 108.409 38.3387 108.633 37.928C108.866 37.5173 108.983 37.0553 108.983 36.542C108.983 36.038 108.866 35.59 108.633 35.198C108.409 34.806 108.096 34.498 107.695 34.274C107.293 34.0407 106.827 33.924 106.295 33.924C105.772 33.924 105.31 34.036 104.909 34.26C104.507 34.4747 104.19 34.778 103.957 35.17C103.733 35.562 103.621 36.0147 103.621 36.528C103.621 37.0413 103.733 37.5033 103.957 37.914C104.19 38.3247 104.507 38.6513 104.909 38.894C105.319 39.1367 105.786 39.258 106.309 39.258ZM115.145 40.07C114.436 40.07 113.796 39.9113 113.227 39.594C112.667 39.2673 112.224 38.824 111.897 38.264C111.57 37.6947 111.407 37.046 111.407 36.318C111.407 35.5807 111.57 34.932 111.897 34.372C112.224 33.812 112.667 33.3733 113.227 33.056C113.787 32.7387 114.426 32.58 115.145 32.58C115.873 32.58 116.517 32.7387 117.077 33.056C117.646 33.3733 118.09 33.812 118.407 34.372C118.734 34.932 118.897 35.5807 118.897 36.318C118.897 37.046 118.734 37.6947 118.407 38.264C118.09 38.824 117.646 39.2673 117.077 39.594C116.508 39.9113 115.864 40.07 115.145 40.07ZM115.145 39.188C115.677 39.188 116.148 39.0713 116.559 38.838C116.97 38.5953 117.292 38.2593 117.525 37.83C117.768 37.3913 117.889 36.8873 117.889 36.318C117.889 35.7393 117.768 35.2353 117.525 34.806C117.292 34.3767 116.97 34.0453 116.559 33.812C116.148 33.5693 115.682 33.448 115.159 33.448C114.636 33.448 114.17 33.5693 113.759 33.812C113.348 34.0453 113.022 34.3767 112.779 34.806C112.536 35.2353 112.415 35.7393 112.415 36.318C112.415 36.8873 112.536 37.3913 112.779 37.83C113.022 38.2593 113.348 38.5953 113.759 38.838C114.17 39.0713 114.632 39.188 115.145 39.188ZM124.815 40.07C124.181 40.07 123.607 39.9253 123.093 39.636C122.58 39.3373 122.169 38.9127 121.861 38.362C121.563 37.802 121.413 37.1207 121.413 36.318C121.413 35.5153 121.563 34.8387 121.861 34.288C122.16 33.728 122.566 33.3033 123.079 33.014C123.593 32.7247 124.171 32.58 124.815 32.58C125.515 32.58 126.141 32.7387 126.691 33.056C127.251 33.364 127.69 33.8027 128.007 34.372C128.325 34.932 128.483 35.5807 128.483 36.318C128.483 37.0647 128.325 37.718 128.007 38.278C127.69 38.838 127.251 39.2767 126.691 39.594C126.141 39.9113 125.515 40.07 124.815 40.07ZM121.021 42.716V32.65H121.973V34.862L121.875 36.332L122.015 37.816V42.716H121.021ZM124.745 39.188C125.268 39.188 125.735 39.0713 126.145 38.838C126.556 38.5953 126.883 38.2593 127.125 37.83C127.368 37.3913 127.489 36.8873 127.489 36.318C127.489 35.7487 127.368 35.2493 127.125 34.82C126.883 34.3907 126.556 34.0547 126.145 33.812C125.735 33.5693 125.268 33.448 124.745 33.448C124.223 33.448 123.751 33.5693 123.331 33.812C122.921 34.0547 122.594 34.3907 122.351 34.82C122.118 35.2493 122.001 35.7487 122.001 36.318C122.001 36.8873 122.118 37.3913 122.351 37.83C122.594 38.2593 122.921 38.5953 123.331 38.838C123.751 39.0713 124.223 39.188 124.745 39.188ZM141.031 39.51V31.096H136.341L136.257 33.476C136.229 34.2133 136.182 34.9227 136.117 35.604C136.061 36.276 135.968 36.8827 135.837 37.424C135.716 37.956 135.548 38.39 135.333 38.726C135.128 39.062 134.857 39.258 134.521 39.314L133.387 39.104C133.76 39.1227 134.068 38.9873 134.311 38.698C134.563 38.4087 134.754 38.0027 134.885 37.48C135.025 36.9573 135.128 36.346 135.193 35.646C135.258 34.946 135.305 34.19 135.333 33.378L135.445 30.2H142.053V39.51H141.031ZM133.023 42.198L133.037 39.104H143.523V42.198H142.557V40H134.003L133.989 42.198H133.023ZM148.217 40.07C147.508 40.07 146.869 39.9113 146.299 39.594C145.739 39.2673 145.296 38.824 144.969 38.264C144.643 37.6947 144.479 37.046 144.479 36.318C144.479 35.5807 144.643 34.932 144.969 34.372C145.296 33.812 145.739 33.3733 146.299 33.056C146.859 32.7387 147.499 32.58 148.217 32.58C148.945 32.58 149.589 32.7387 150.149 33.056C150.719 33.3733 151.162 33.812 151.479 34.372C151.806 34.932 151.969 35.5807 151.969 36.318C151.969 37.046 151.806 37.6947 151.479 38.264C151.162 38.824 150.719 39.2673 150.149 39.594C149.58 39.9113 148.936 40.07 148.217 40.07ZM148.217 39.188C148.749 39.188 149.221 39.0713 149.631 38.838C150.042 38.5953 150.364 38.2593 150.597 37.83C150.84 37.3913 150.961 36.8873 150.961 36.318C150.961 35.7393 150.84 35.2353 150.597 34.806C150.364 34.3767 150.042 34.0453 149.631 33.812C149.221 33.5693 148.754 33.448 148.231 33.448C147.709 33.448 147.242 33.5693 146.831 33.812C146.421 34.0453 146.094 34.3767 145.851 34.806C145.609 35.2353 145.487 35.7393 145.487 36.318C145.487 36.8873 145.609 37.3913 145.851 37.83C146.094 38.2593 146.421 38.5953 146.831 38.838C147.242 39.0713 147.704 39.188 148.217 39.188ZM157.174 40.07C156.446 40.07 155.792 39.9113 155.214 39.594C154.644 39.2673 154.196 38.824 153.87 38.264C153.543 37.6947 153.38 37.046 153.38 36.318C153.38 35.5807 153.543 34.932 153.87 34.372C154.196 33.812 154.644 33.3733 155.214 33.056C155.792 32.7387 156.446 32.58 157.174 32.58C157.799 32.58 158.364 32.7013 158.868 32.944C159.372 33.1867 159.768 33.5507 160.058 34.036L159.316 34.54C159.064 34.1667 158.751 33.8913 158.378 33.714C158.004 33.5367 157.598 33.448 157.16 33.448C156.637 33.448 156.166 33.5693 155.746 33.812C155.326 34.0453 154.994 34.3767 154.752 34.806C154.509 35.2353 154.388 35.7393 154.388 36.318C154.388 36.8967 154.509 37.4007 154.752 37.83C154.994 38.2593 155.326 38.5953 155.746 38.838C156.166 39.0713 156.637 39.188 157.16 39.188C157.598 39.188 158.004 39.0993 158.378 38.922C158.751 38.7447 159.064 38.474 159.316 38.11L160.058 38.614C159.768 39.09 159.372 39.454 158.868 39.706C158.364 39.9487 157.799 40.07 157.174 40.07ZM163.246 40V33.252L163.498 33.518H160.46V32.65H167.026V33.518H163.988L164.24 33.252V40H163.246ZM171.145 40.07C170.436 40.07 169.796 39.9113 169.227 39.594C168.667 39.2673 168.224 38.824 167.897 38.264C167.57 37.6947 167.407 37.046 167.407 36.318C167.407 35.5807 167.57 34.932 167.897 34.372C168.224 33.812 168.667 33.3733 169.227 33.056C169.787 32.7387 170.426 32.58 171.145 32.58C171.873 32.58 172.517 32.7387 173.077 33.056C173.646 33.3733 174.09 33.812 174.407 34.372C174.734 34.932 174.897 35.5807 174.897 36.318C174.897 37.046 174.734 37.6947 174.407 38.264C174.09 38.824 173.646 39.2673 173.077 39.594C172.508 39.9113 171.864 40.07 171.145 40.07ZM171.145 39.188C171.677 39.188 172.148 39.0713 172.559 38.838C172.97 38.5953 173.292 38.2593 173.525 37.83C173.768 37.3913 173.889 36.8873 173.889 36.318C173.889 35.7393 173.768 35.2353 173.525 34.806C173.292 34.3767 172.97 34.0453 172.559 33.812C172.148 33.5693 171.682 33.448 171.159 33.448C170.636 33.448 170.17 33.5693 169.759 33.812C169.348 34.0453 169.022 34.3767 168.779 34.806C168.536 35.2353 168.415 35.7393 168.415 36.318C168.415 36.8873 168.536 37.3913 168.779 37.83C169.022 38.2593 169.348 38.5953 169.759 38.838C170.17 39.0713 170.632 39.188 171.145 39.188ZM177.021 40V32.65H178.015V38.488L182.929 32.65H183.811V40H182.817V34.148L177.917 40H177.021ZM180.353 31.586C179.737 31.586 179.238 31.432 178.855 31.124C178.482 30.8067 178.286 30.354 178.267 29.766H178.981C178.991 30.1393 179.121 30.4333 179.373 30.648C179.625 30.8627 179.952 30.97 180.353 30.97C180.755 30.97 181.081 30.8627 181.333 30.648C181.595 30.4333 181.73 30.1393 181.739 29.766H182.453C182.444 30.354 182.248 30.8067 181.865 31.124C181.483 31.432 180.979 31.586 180.353 31.586ZM186.66 40V32.65H187.654V35.898H192.288V32.65H193.282V40H192.288V36.752H187.654V40H186.66ZM203.275 40V32.65H204.269V40H203.275ZM199.201 35.24C200.125 35.2493 200.83 35.4547 201.315 35.856C201.801 36.2573 202.043 36.836 202.043 37.592C202.043 38.376 201.782 38.978 201.259 39.398C200.737 39.818 199.99 40.0233 199.019 40.014L196.107 40V32.65H197.101V35.212L199.201 35.24ZM198.949 39.258C199.64 39.2673 200.158 39.132 200.503 38.852C200.858 38.5627 201.035 38.1427 201.035 37.592C201.035 37.0413 200.863 36.64 200.517 36.388C200.172 36.1267 199.649 35.9913 198.949 35.982L197.101 35.954V39.23L198.949 39.258ZM207.1 40V32.65H208.094V38.488L213.008 32.65H213.89V40H212.896V34.148L207.996 40H207.1ZM210.432 31.586C209.816 31.586 209.316 31.432 208.934 31.124C208.56 30.8067 208.364 30.354 208.346 29.766H209.06C209.069 30.1393 209.2 30.4333 209.452 30.648C209.704 30.8627 210.03 30.97 210.432 30.97C210.833 30.97 211.16 30.8627 211.412 30.648C211.673 30.4333 211.808 30.1393 211.818 29.766H212.532C212.522 30.354 212.326 30.8067 211.944 31.124C211.561 31.432 211.057 31.586 210.432 31.586ZM220.64 40V30.2H224.714C225.75 30.2 226.562 30.4147 227.15 30.844C227.748 31.264 228.046 31.8847 228.046 32.706C228.046 33.518 227.762 34.134 227.192 34.554C226.623 34.9647 225.876 35.17 224.952 35.17L225.19 34.82C226.282 34.82 227.113 35.0347 227.682 35.464C228.252 35.8933 228.536 36.5233 228.536 37.354C228.536 38.194 228.238 38.8473 227.64 39.314C227.052 39.7713 226.166 40 224.98 40H220.64ZM221.662 39.174H224.98C225.811 39.174 226.441 39.02 226.87 38.712C227.3 38.404 227.514 37.928 227.514 37.284C227.514 36.6493 227.3 36.1827 226.87 35.884C226.441 35.5853 225.811 35.436 224.98 35.436H221.662V39.174ZM221.662 34.638H224.658C225.414 34.638 225.993 34.4887 226.394 34.19C226.805 33.882 227.01 33.4293 227.01 32.832C227.01 32.2347 226.805 31.7867 226.394 31.488C225.993 31.18 225.414 31.026 224.658 31.026H221.662V34.638ZM235.453 40V38.376L235.411 38.11V35.394C235.411 34.7687 235.233 34.288 234.879 33.952C234.533 33.616 234.015 33.448 233.325 33.448C232.849 33.448 232.396 33.5273 231.967 33.686C231.537 33.8447 231.173 34.0547 230.875 34.316L230.427 33.574C230.8 33.2567 231.248 33.014 231.771 32.846C232.293 32.6687 232.844 32.58 233.423 32.58C234.375 32.58 235.107 32.818 235.621 33.294C236.143 33.7607 236.405 34.4747 236.405 35.436V40H235.453ZM232.919 40.07C232.368 40.07 231.887 39.9813 231.477 39.804C231.075 39.6173 230.767 39.3653 230.553 39.048C230.338 38.7213 230.231 38.348 230.231 37.928C230.231 37.5453 230.319 37.2 230.497 36.892C230.683 36.5747 230.982 36.3227 231.393 36.136C231.813 35.94 232.373 35.842 233.073 35.842H235.607V36.584H233.101C232.391 36.584 231.897 36.71 231.617 36.962C231.346 37.214 231.211 37.5267 231.211 37.9C231.211 38.32 231.374 38.656 231.701 38.908C232.027 39.16 232.485 39.286 233.073 39.286C233.633 39.286 234.113 39.16 234.515 38.908C234.925 38.6467 235.224 38.2733 235.411 37.788L235.635 38.474C235.448 38.9593 235.121 39.3467 234.655 39.636C234.197 39.9253 233.619 40.07 232.919 40.07ZM242.131 40.07C241.403 40.07 240.749 39.9113 240.171 39.594C239.601 39.2673 239.153 38.824 238.827 38.264C238.5 37.6947 238.337 37.046 238.337 36.318C238.337 35.5807 238.5 34.932 238.827 34.372C239.153 33.812 239.601 33.3733 240.171 33.056C240.749 32.7387 241.403 32.58 242.131 32.58C242.756 32.58 243.321 32.7013 243.825 32.944C244.329 33.1867 244.725 33.5507 245.015 34.036L244.273 34.54C244.021 34.1667 243.708 33.8913 243.335 33.714C242.961 33.5367 242.555 33.448 242.117 33.448C241.594 33.448 241.123 33.5693 240.703 33.812C240.283 34.0453 239.951 34.3767 239.709 34.806C239.466 35.2353 239.345 35.7393 239.345 36.318C239.345 36.8967 239.466 37.4007 239.709 37.83C239.951 38.2593 240.283 38.5953 240.703 38.838C241.123 39.0713 241.594 39.188 242.117 39.188C242.555 39.188 242.961 39.0993 243.335 38.922C243.708 38.7447 244.021 38.474 244.273 38.11L245.015 38.614C244.725 39.09 244.329 39.454 243.825 39.706C243.321 39.9487 242.756 40.07 242.131 40.07Z"
        fill="#6F7A87" />
    <g clip-path="url(#clip0_361_21)">
        <path
            d="M13.3491 3.74841C14.812 1.54346 17.0795 0.624735 19.4933 0L21.2854 1.61696L19.603 3.60141L19.7859 5.95336C18.3595 5.91661 18.2864 6.79859 18.323 7.90106C18.323 8.41555 18.2498 9.07703 17.9572 9.48127C16.348 11.5392 16.4578 13.8544 16.7138 16.2799C18.579 16.9781 19.9687 16.4636 21.2488 14.9936C22.0534 14.1117 23.2237 13.5237 24.2477 12.8254C23.2237 11.6495 24.4306 10.7675 24.7232 9.81201C25.0523 8.67279 25.8204 7.68057 26.6615 6.10035C24.65 6.10035 23.114 6.17385 21.5779 6.0636C21.2854 6.0636 21.0659 5.29187 20.7368 4.81413C23.7357 4.42214 26.9907 4.97338 30.5017 6.46784C31.2331 9.04028 29.7336 11.2085 28.417 12.8254C27.1735 14.3689 24.7232 14.9201 21.9802 16.3166C24.394 16.4269 26.0764 16.2799 27.6124 16.6841C29.1485 17.0883 30.5382 18.0806 32.1474 18.9258C32.7326 17.1618 33.6103 15.2509 34.0126 13.1929C34.1955 12.2375 33.5372 11.135 33.2446 10.0693C34.8172 9.07703 36.2801 7.60707 38.0356 7.12933C39.9374 6.61484 42.0586 7.01908 44.4358 7.01908C44.4724 9.15053 45.277 11.3187 43.8507 13.4134C43.9238 17.3823 43.1192 21.388 44.253 25.3201C44.6918 26.8269 44.5821 28.1866 44.1432 29.73C43.4849 32.1555 42.1683 34.6177 43.1558 37.5576L46.1913 36.2714C46.6302 34.7279 46.301 33.111 47.1056 31.4572C48.4222 28.6276 47.5079 25.1731 48.8977 22.2332C49.0805 21.829 48.2028 21.0572 48.1662 20.4693C48.0931 19.5138 48.0199 18.2643 48.532 17.6396C49.8851 15.9124 49.9217 14.0749 49.9217 12.0905C49.9217 11.7597 50.3606 11.3922 50.6897 10.9145L47.6908 7.86431C50.2874 6.17385 51.8966 4.15265 51.6041 0.992226C52.6647 1.17597 53.4693 1.43322 54.2373 1.39647C55.0053 1.39647 55.7733 1.06572 57.0899 0.771731L55.9928 5.32862C57.4922 5.32862 58.882 5.29187 60.3083 5.32862C63.1976 5.43887 64.2948 6.57809 64.7702 9.55477C64.8433 10.0693 65.2456 10.5102 65.5382 11.0982C63.5633 12.3477 62.6124 14.8099 60.4912 16.1329C60.4181 16.1696 60.7838 16.9413 60.9301 17.3456C62.6124 16.3166 64.2582 18.4113 65.9039 17.2353L70.0367 21.7922C70.1464 23.4827 69.7806 25.3569 68.5737 27.2678C66.8183 30.0975 64.3679 31.935 61.4055 33.0375C56.8705 34.7279 52.3355 36.4184 47.8736 38.3293C43.8872 40.0565 39.6082 40.865 35.695 42.629C32.4766 44.0989 28.9656 44.5767 25.7472 46.0099C22.6751 47.3329 19.2739 47.9576 16.0555 48.9131C13.6051 49.6481 11.1913 50.4933 8.74094 51.3018C8.2655 51.4488 7.82663 51.7795 7.38776 52.0368C6.21743 50.677 8.48494 49.0233 7.0586 47.7004C7.64376 47.1491 8.15578 46.2671 8.81409 46.1569C12.4348 45.5322 15.9458 43.9519 19.5299 43.658C23.882 43.3272 25.3449 40.4608 26.1129 37.4473C26.6981 35.1322 27.6124 33.1477 28.673 31.0898C28.8559 30.759 28.8559 30.318 29.0022 29.5463C27.8684 30.2445 27.0638 30.8693 26.1861 31.2735C25.3449 31.6777 24.394 31.8615 23.5163 32.1555C20.5173 33.1477 17.7744 34.5074 15.2143 36.4551C13.532 37.7413 11.8862 40.1668 9.14324 38.8806C8.77752 37.6678 8.15578 36.5286 8.15578 35.3526C8.15578 33.7724 8.48494 32.1555 9.03352 30.6855C9.8747 28.4806 10.1307 26.2021 10.4599 23.9237C10.789 21.6085 10.1307 19.1095 12.0325 17.1618C12.2153 16.9781 12.2519 16.6474 12.2519 16.3901C12.2885 14.1484 12.0691 11.9435 13.0931 9.77527C13.4954 8.96679 13.1297 7.97456 12.2519 7.38657C12.8371 6.76184 13.532 6.2106 13.9343 5.47562C14.1171 5.18163 13.6417 4.52014 13.3491 3.78516V3.74841ZM10.4233 35.9039C11.6668 35.4629 12.5811 35.2424 13.3491 34.8749C16.348 33.4049 19.2007 31.494 22.3825 30.5385C24.2112 29.9873 25.3815 29.3258 26.2227 27.7823C27.0273 26.2389 28.8925 25.0629 27.7221 22.7477L23.1506 18.2276C20.7733 18.2643 18.2133 18.1541 15.6532 18.3378C16.2018 21.829 13.0565 24.2177 13.8977 27.4516C12.5079 29.9873 10.6061 32.3025 10.4233 35.9406V35.9039ZM52.5915 19.1095C52.3355 23.5562 50.1412 27.1576 50.6897 31.0163L49.1171 31.5675L51.1652 34.5809C52.7744 33.9194 54.859 33.6622 55.8831 32.4862C57.602 30.5385 60.0523 30.4283 62.1735 29.1053C60.7838 25.6876 65.1359 24.8792 65.7211 21.976C64.2216 21.7187 63.0513 21.0572 61.881 20.4325C59.8329 19.33 57.7117 16.9781 54.859 19.1095C54.4201 19.4403 53.4693 19.1463 52.5915 19.1463V19.1095ZM38.7305 9.33428C38.3282 12.6417 37.6333 15.3979 36.5361 18.0438C35.3658 20.8735 34.3418 23.7767 33.2446 26.6799C32.952 27.4148 32.4766 28.1498 32.4034 28.9216C32.184 31.7145 31.8914 33.111 31.16 34.6544C30.2822 36.5654 29.5142 38.5131 28.417 41.0855C32.0377 40.0198 35.2561 40.3138 37.6333 37.7413C36.3533 37.4106 35.3292 36.9696 35.8778 35.4629C36.1338 34.7279 36.463 33.9194 36.9384 33.2947C39.0596 30.465 39.6448 27.3413 39.4254 23.8869C39.3157 22.417 38.7305 20.7265 40.2665 19.477C40.2665 16.6106 40.2665 13.7074 40.1568 10.841C40.1568 10.4 39.3888 10.0325 38.7305 9.37103V9.33428ZM61.1129 10.7307C59.9792 9.59152 58.9186 8.41555 57.7117 7.38657C56.4316 6.32085 54.2373 7.16608 54.3104 8.81979C54.4567 11.7597 53.4327 14.3689 52.1892 17.5293C54.3104 17.0883 56.0293 17.0516 57.3825 16.3166C59.4306 15.2509 59.8695 12.7887 61.1495 10.694L61.1129 10.7307Z"
            fill="#D81619" />
        <path
            d="M12.9832 7.86431C10.8254 8.96678 9.3991 9.70177 7.97277 10.4C7.75334 10.5102 7.24132 10.5837 7.24132 10.6205C7.46075 14.9201 2.92575 13.5972 1.20683 15.5816C1.09712 15.7286 0.658245 15.5816 0.365664 15.5816C-1.0241 14.7364 1.75542 13.3767 -6.19255e-05 12.6049C0.658245 12.164 1.31655 11.6862 2.01143 11.282C5.19325 9.48127 8.3385 7.57032 12.9466 7.86431H12.9832Z"
            fill="#D81619" />
    </g>
    <defs>
        <clipPath id="clip0_361_21">
            <rect width="70" height="52" fill="white" />
        </clipPath>
    </defs>
</svg>