<svg width="48" height="48" viewBox="0 0 48 48" fill="none" xmlns="http://www.w3.org/2000/svg">
    <path
        d="M24.002 23.5C24.9686 23.5 25.7936 23.1583 26.477 22.475C27.1603 21.7917 27.502 20.9667 27.502 20C27.502 19.0333 27.1603 18.2083 26.477 17.525C25.7936 16.8417 24.9686 16.5 24.002 16.5C23.0353 16.5 22.2103 16.8417 21.527 17.525C20.8436 18.2083 20.502 19.0333 20.502 20C20.502 20.9667 20.8436 21.7917 21.527 22.475C22.2103 23.1583 23.0353 23.5 24.002 23.5ZM24.002 44C18.6353 39.4333 14.627 35.1917 11.977 31.275C9.32695 27.3583 8.00195 23.7333 8.00195 20.4C8.00195 15.4 9.61029 11.4167 12.827 8.45C16.0436 5.48333 19.7686 4 24.002 4C28.2353 4 31.9603 5.48333 35.177 8.45C38.3936 11.4167 40.002 15.4 40.002 20.4C40.002 23.7333 38.677 27.3583 36.027 31.275C33.377 35.1917 29.3686 39.4333 24.002 44Z"
        fill="#d81619" />
</svg>