<svg xmlns="http://www.w3.org/2000/svg" width="32" height="32" viewBox="0 0 32 32" >
 
    <path fill-rule="evenodd" clip-rule="evenodd" d="M9.19649 1.83492C10.8466 1.15144 12.6151 0.799652 14.4011 0.799652C16.1871 0.799652 17.9557 1.15144 19.6057 1.83492C21.2558 2.5184 22.7551 3.52019 24.018 4.7831C25.2809 6.046 26.2827 7.54529 26.9662 9.19536C27.6497 10.8454 28.0014 12.614 28.0014 14.4C28.0014 16.186 27.6497 17.9545 26.9662 19.6046C26.3849 21.0078 25.5735 22.302 24.567 23.4345L30.9668 29.8343C31.2792 30.1467 31.2792 30.6532 30.9668 30.9657C30.6544 31.2781 30.1478 31.2781 29.8354 30.9657L23.4357 24.5659C20.9534 26.7721 17.7406 28.0003 14.4011 28.0003C10.7941 28.0003 7.33478 26.5674 4.78423 24.0169C2.23367 21.4663 0.800781 18.007 0.800781 14.4C0.800781 10.793 2.23367 7.33365 4.78423 4.7831C6.04713 3.52019 7.54642 2.5184 9.19649 1.83492ZM14.4011 2.39965C12.8252 2.39965 11.2647 2.71005 9.80878 3.31312C8.35284 3.9162 7.02993 4.80013 5.9156 5.91447C3.6651 8.16497 2.40078 11.2173 2.40078 14.4C2.40078 17.5827 3.6651 20.635 5.9156 22.8855C8.16609 25.136 11.2184 26.4003 14.4011 26.4003C17.5838 26.4003 20.6361 25.136 22.8866 22.8855C24.001 21.7712 24.8849 20.4483 25.488 18.9923C26.091 17.5364 26.4014 15.9759 26.4014 14.4C26.4014 12.8241 26.091 11.2636 25.488 9.80765C24.8849 8.35171 24.001 7.0288 22.8866 5.91447C21.7723 4.80013 20.4494 3.9162 18.9934 3.31312C17.5375 2.71005 15.977 2.39965 14.4011 2.39965ZM14.4011 8.79998C14.8429 8.79998 15.2011 9.15815 15.2011 9.59998V13.6H19.2011C19.6429 13.6 20.0011 13.9582 20.0011 14.4C20.0011 14.8418 19.6429 15.2 19.2011 15.2H15.2011V19.2C15.2011 19.6418 14.8429 20 14.4011 20C13.9593 20 13.6011 19.6418 13.6011 19.2V15.2H9.60111C9.15928 15.2 8.80111 14.8418 8.80111 14.4C8.80111 13.9582 9.15928 13.6 9.60111 13.6H13.6011V9.59998C13.6011 9.15815 13.9593 8.79998 14.4011 8.79998Z" fill="white"/>
 
  
</svg>