<svg width="1720" height="450" viewBox="0 0 1720 450" fill="none" xmlns="http://www.w3.org/2000/svg">
    <g clip-path="url(#clip0_2319_7438)">
        <rect width="1720" height="450" fill="white" />
        <g clip-path="url(#clip1_2319_7438)">
            <rect width="1720" height="410" rx="12" fill="#D81619" />
            <rect width="1720" height="450" fill="url(#paint0_radial_2319_7438)" />
            <g style="mix-blend-mode:soft-light" opacity="0.6" clip-path="url(#clip2_2319_7438)">
                <path
                    d="M156.528 -31.0438C179.161 -65.1357 214.243 -79.3406 251.588 -89L279.313 -63.9993L253.285 -33.3166L256.114 3.04806C234.047 2.47986 232.915 16.1166 233.481 33.1626C233.481 41.1173 232.35 51.3449 227.823 57.595C202.926 89.4141 204.624 125.211 208.585 162.712C237.442 173.507 258.944 165.553 278.748 142.825C291.196 129.188 309.303 120.097 325.146 109.301C309.303 91.1187 327.975 77.482 332.502 62.7088C337.594 45.0947 349.477 29.7534 362.491 5.32085C331.37 5.32085 307.605 6.45724 283.84 4.75266C279.313 4.75266 275.918 -7.1795 270.826 -14.5661C317.224 -20.6269 367.583 -12.1039 421.903 11.0028C433.219 50.7767 410.02 84.3004 389.65 109.301C370.412 133.165 332.502 141.688 290.064 163.28C327.409 164.984 353.437 162.712 377.202 168.962C400.967 175.212 422.469 190.553 447.365 203.622C456.418 176.348 469.998 146.802 476.223 114.983C479.052 100.21 468.867 83.164 464.34 66.6862C488.671 51.3449 511.304 28.617 538.464 21.2304C567.887 13.2756 600.705 19.5258 637.484 19.5258C638.05 52.4813 650.498 86.005 628.431 118.392C629.563 179.758 617.114 241.691 634.655 302.488C641.445 325.784 639.748 346.808 632.958 370.672C622.773 408.173 602.403 446.242 617.68 491.698L664.644 471.811C671.434 447.947 666.342 422.946 678.79 397.377C699.16 353.626 685.014 300.216 706.516 254.76C709.345 248.51 695.765 236.577 695.199 227.486C694.067 212.713 692.936 193.394 700.857 183.735C721.793 157.03 722.359 128.62 722.359 97.9371C722.359 92.8233 729.149 87.1414 734.241 79.7548L687.843 32.5944C728.017 6.45725 752.914 -24.7936 748.387 -73.6587C764.796 -70.8177 777.245 -66.8403 789.127 -67.4085C801.009 -67.4085 812.892 -72.5223 833.262 -77.0678L816.287 -6.61131C839.486 -6.61131 860.987 -7.1795 883.055 -6.61131C927.755 -4.90671 944.73 12.7074 952.086 58.7314C953.218 66.6862 959.442 73.5046 963.969 82.5958C933.414 101.914 918.702 139.984 885.884 160.439C884.752 161.007 890.411 172.939 892.674 179.189C918.702 163.28 944.165 195.667 969.627 177.485L1033.57 247.941C1035.26 274.078 1029.6 303.057 1010.93 332.603C983.773 376.354 945.862 404.764 900.03 421.81C829.867 447.947 759.704 474.084 690.672 503.63C628.997 530.336 562.795 542.836 502.251 570.11C452.458 592.838 398.138 600.224 348.345 622.384C300.815 642.839 248.193 652.498 198.4 667.271C160.489 678.635 123.144 691.704 85.2335 704.204C77.8777 706.477 71.0878 711.591 64.2978 715.568C46.1912 694.545 81.2727 668.976 59.2053 648.521C68.2586 639.998 76.1803 626.361 86.3652 624.657C142.382 614.997 196.702 590.565 252.154 586.019C319.487 580.905 342.121 536.586 354.003 489.994C363.056 454.197 377.202 423.515 393.611 391.695C396.44 386.582 396.44 379.763 398.704 367.831C381.163 378.627 368.715 388.286 355.135 394.536C342.121 400.787 327.409 403.628 313.829 408.173C267.431 423.515 224.994 444.538 185.386 474.652C159.357 494.539 133.895 532.04 91.4577 512.153C85.7994 493.403 76.1802 475.789 76.1802 457.606C76.1802 433.174 81.2727 408.173 89.7602 385.445C102.774 351.353 106.735 316.125 111.828 280.897C116.92 245.1 106.735 206.463 136.158 176.348C138.987 173.507 139.553 168.394 139.553 164.416C140.119 129.756 136.724 95.6643 152.567 62.1406C158.792 49.6403 153.133 34.2989 139.553 25.2078C148.607 15.5484 159.357 7.02544 165.581 -4.33852C168.411 -8.88409 161.055 -19.1117 156.528 -30.4756V-31.0438ZM111.262 466.129C130.5 459.311 144.646 455.902 156.528 450.22C202.926 427.492 247.061 397.946 296.288 383.172C324.58 374.65 342.687 364.422 355.701 340.558C368.149 316.693 397.006 298.511 378.9 262.715L308.171 192.826C271.392 193.394 231.784 191.69 192.176 194.531C200.663 248.51 152.002 285.442 165.016 335.444C143.514 374.649 114.091 410.446 111.262 466.698V466.129ZM763.665 206.463C759.704 275.215 725.754 330.898 734.241 390.559L709.911 399.082L741.597 445.674C766.494 435.447 798.746 431.469 814.589 413.287C841.183 383.172 879.094 381.468 911.912 361.013C890.411 308.17 957.744 295.67 966.798 250.782C943.599 246.805 925.492 236.577 907.386 226.918C875.699 209.872 842.881 173.507 798.746 206.463C791.956 211.577 777.245 207.031 763.665 207.031V206.463ZM549.215 55.3223C542.991 106.46 532.24 149.075 515.265 189.985C497.158 233.736 481.315 278.624 464.34 323.512C459.814 334.876 452.458 346.24 451.326 358.172C447.931 401.355 443.404 422.946 432.088 446.811C418.508 476.357 406.625 506.471 389.65 546.245C445.668 529.768 495.461 534.313 532.24 494.539C512.436 489.425 496.592 482.607 505.08 459.311C509.041 447.947 514.133 435.447 521.489 425.787C554.307 382.036 563.361 333.739 559.966 280.329C558.268 257.601 549.215 231.464 572.98 212.145C572.98 167.825 572.98 122.938 571.282 78.6184C571.282 71.8 559.4 66.118 549.215 55.8905V55.3223ZM895.503 76.9138C877.962 59.2997 861.553 41.1173 842.881 25.2078C823.077 8.73004 789.127 21.7986 790.259 47.3675C792.522 92.8233 776.679 133.165 757.44 182.03C790.259 175.212 816.853 174.644 837.788 163.28C869.475 146.802 876.265 108.733 896.069 76.3456L895.503 76.9138Z"
                    fill="white" />
                <path
                    d="M150.87 32.5942C117.486 49.6401 95.4185 61.0041 73.3511 71.7998C69.9561 73.5044 62.0345 74.6408 62.0345 75.209C65.4295 141.688 -4.73354 121.233 -31.3276 151.916C-33.0251 154.189 -39.815 151.916 -44.3417 151.916C-65.8433 138.847 -22.8401 117.824 -50 105.892C-39.815 99.0733 -29.6301 91.6867 -18.8793 85.4366C30.348 57.5949 79.0094 28.0486 150.304 32.5942H150.87Z"
                    fill="white" />
            </g>
        </g>
    </g>
    <defs>
        <radialGradient id="paint0_radial_2319_7438" cx="0" cy="0" r="1" gradientUnits="userSpaceOnUse"
            gradientTransform="translate(427 225) rotate(-0.737052) scale(810.567 692.996)">
            <stop stop-color="#FF5335" />
            <stop offset="1" stop-color="#D81619" />
        </radialGradient>
        <clipPath id="clip0_2319_7438">
            <rect width="1720" height="450" fill="white" />
        </clipPath>
        <clipPath id="clip1_2319_7438">
            <rect width="1920" height="600" fill="white" transform="translate(-100 -150)" />
        </clipPath>
        <clipPath id="clip2_2319_7438">
            <rect width="1083" height="804" fill="white" transform="translate(-50 -89)" />
        </clipPath>
    </defs>
</svg>