<svg width="290" height="670" viewBox="0 0 290 670" fill="none" xmlns="http://www.w3.org/2000/svg">
    <g clip-path="url(#clip0_2319_7456)">
        <rect width="290" height="670" fill="white" />
        <rect width="290" height="670" fill="url(#paint0_radial_2319_7456)" />
        <g style="mix-blend-mode:soft-light" opacity="0.6">
            <g clip-path="url(#clip1_2319_7456)">
                <path
                    d="M-42.7923 422.234C-33.5879 408.406 -19.3209 402.644 -4.13358 398.727L7.1419 408.867L-3.44324 421.312L-2.29269 436.061C-11.267 435.831 -11.7273 441.362 -11.4971 448.276C-11.4971 451.502 -11.9574 455.651 -13.7983 458.186C-23.9232 471.091 -23.2328 485.611 -21.6221 500.821C-9.88637 505.2 -1.14213 501.973 6.91178 492.755C11.9742 487.224 19.3378 483.536 25.7809 479.158C19.3378 471.783 26.9315 466.252 28.7724 460.26C30.8434 453.115 35.6757 446.893 40.9683 436.983C28.3122 436.983 18.6475 437.444 8.98279 436.753C7.1419 436.753 5.76122 431.913 3.69022 428.917C22.5594 426.459 43.0393 429.916 65.13 439.288C69.7323 455.42 60.2977 469.017 52.0137 479.158C44.1899 488.837 28.7724 492.294 11.514 501.051C26.7014 501.743 37.2865 500.821 46.9512 503.356C56.6159 505.891 65.3602 512.114 75.4851 517.414C79.1668 506.352 84.6895 494.368 87.2208 481.462C88.3713 475.47 84.2293 468.556 82.3884 461.873C92.2832 455.651 101.488 446.432 112.533 443.436C124.499 440.21 137.845 442.745 152.803 442.745C153.033 456.111 158.095 469.709 149.121 482.845C149.581 507.735 144.519 532.855 151.652 557.514C154.413 566.963 153.723 575.49 150.962 585.17C146.82 600.38 138.536 615.821 144.749 634.258L163.848 626.192C166.609 616.513 164.538 606.372 169.601 596.002C177.885 578.256 172.132 556.593 180.876 538.156C182.027 535.621 176.504 530.781 176.274 527.094C175.814 521.102 175.354 513.266 178.575 509.348C187.089 498.516 187.319 486.993 187.319 474.548C187.319 472.474 190.081 470.17 192.152 467.174L173.283 448.045C189.62 437.444 199.745 424.769 197.904 404.949C204.578 406.101 209.64 407.715 214.473 407.484C219.305 407.484 224.137 405.41 232.421 403.566L225.518 432.143C234.952 432.143 243.697 431.913 252.671 432.143C270.85 432.835 277.753 439.979 280.745 458.647C281.205 461.873 283.736 464.639 285.577 468.326C273.151 476.162 267.168 491.603 253.822 499.899C253.361 500.13 255.662 504.969 256.583 507.504C267.168 501.051 277.523 514.188 287.878 506.813L313.881 535.39C314.571 545.991 312.27 557.745 304.676 569.729C293.631 587.474 278.213 598.998 259.574 605.911C231.041 616.513 202.507 627.114 174.433 639.098C149.351 649.93 122.428 655 97.8059 666.062C77.5561 675.28 55.4653 678.276 35.2155 687.264C15.8861 695.561 -5.51425 699.479 -25.7641 705.471C-41.1816 710.08 -56.3689 715.381 -71.7864 720.451C-74.7779 721.373 -77.5392 723.447 -80.3005 725.06C-87.6641 716.533 -73.3972 706.162 -82.3715 697.865C-78.6898 694.409 -75.4682 688.877 -71.3262 688.186C-48.5451 684.268 -26.4544 674.358 -3.90347 672.515C23.4798 670.441 32.6843 652.465 37.5166 633.567C41.1984 619.048 46.9512 606.603 53.6245 593.697C54.775 591.623 54.775 588.857 55.6954 584.018C48.562 588.396 43.4995 592.314 37.9769 594.849C32.6843 597.384 26.7014 598.537 21.1787 600.38C2.30955 606.603 -14.9488 615.13 -31.0566 627.344C-41.6418 635.41 -51.9968 650.621 -69.2552 642.555C-71.5563 634.95 -75.4682 627.805 -75.4682 620.43C-75.4682 610.521 -73.3972 600.38 -69.9455 591.162C-64.6529 577.334 -63.0422 563.046 -60.9712 548.757C-58.9002 534.238 -63.0422 518.566 -51.0764 506.352C-49.9258 505.2 -49.6957 503.126 -49.6957 501.512C-49.4656 487.454 -50.8462 473.627 -44.4031 460.029C-41.8719 454.959 -44.173 448.737 -49.6957 445.049C-46.0139 441.131 -41.6418 437.675 -39.1105 433.065C-37.96 431.222 -40.9514 427.073 -42.7923 422.464V422.234ZM-61.2013 623.887C-53.3775 621.122 -47.6247 619.739 -42.7923 617.434C-23.9232 608.216 -5.97446 596.232 14.0452 590.24C25.5508 586.783 32.9144 582.635 38.207 572.955C43.2694 563.276 55.0051 555.901 47.6416 541.382L18.8776 513.035C3.92033 513.266 -12.1875 512.574 -28.2953 513.727C-24.8436 535.621 -44.6332 550.601 -39.3407 570.881C-48.0849 586.783 -60.0507 601.302 -61.2013 624.118V623.887ZM204.117 518.566C202.507 546.452 188.7 569.038 192.152 593.236L182.257 596.693L195.143 615.591C205.268 611.442 218.384 609.829 224.828 602.454C235.643 590.24 251.06 589.549 264.407 581.252C255.662 559.819 283.046 554.749 286.728 536.542C277.293 534.929 269.929 530.781 262.566 526.863C249.68 519.949 236.333 505.2 218.384 518.566C215.623 520.641 209.64 518.797 204.117 518.797V518.566ZM116.905 457.264C114.374 478.005 110.002 495.29 103.098 511.883C95.7349 529.629 89.2918 547.835 82.3884 566.042C80.5475 570.651 77.5561 575.26 77.0958 580.1C75.7152 597.615 73.8743 606.372 69.2721 616.052C63.7494 628.036 58.917 640.25 52.0137 656.382C74.7947 649.699 95.0446 651.543 110.002 635.41C101.948 633.336 95.5048 630.571 98.9565 621.122C100.567 616.513 102.638 611.442 105.63 607.525C118.976 589.779 122.658 570.19 121.277 548.526C120.587 539.308 116.905 528.707 126.57 520.871C126.57 502.895 126.57 484.689 125.88 466.713C125.88 463.947 121.047 461.643 116.905 457.494V457.264ZM257.733 466.021C250.6 458.877 243.927 451.502 236.333 445.049C228.279 438.366 214.473 443.667 214.933 454.037C215.853 472.474 209.41 488.837 201.586 508.657C214.933 505.891 225.748 505.661 234.262 501.051C247.148 494.368 249.91 478.927 257.964 465.791L257.733 466.021Z"
                    fill="white" />
            </g>
        </g>
    </g>
    <defs>
        <radialGradient id="paint0_radial_2319_7456" cx="0" cy="0" r="1" gradientUnits="userSpaceOnUse"
            gradientTransform="translate(71.9942 335) rotate(-6.48122) scale(137.533 1025.28)">
            <stop stop-color="#FF5335" />
            <stop offset="1" stop-color="#D81619" />
        </radialGradient>
        <clipPath id="clip0_2319_7456">
            <rect width="290" height="670" fill="white" />
        </clipPath>
        <clipPath id="clip1_2319_7456">
            <rect x="10" y="382" width="428" height="295" rx="12" fill="white" />
        </clipPath>
    </defs>
</svg>