<svg width="720" height="450" viewBox="0 0 720 450" fill="none" xmlns="http://www.w3.org/2000/svg">
    <rect width="720" height="410" rx="12" fill="#D81619" />
    <rect width="720" height="450" fill="url(#paint0_radial_2319_7439)" />
    <g style="mix-blend-mode:soft-light" opacity="0.6">
        <g clip-path="url(#clip0_2319_7439)">
            <path
                d="M-88.8097 20.6186C-73.3255 -2.68644 -49.3251 -12.3969 -23.7763 -19L-4.80816 -1.9096L-22.6149 19.065L-20.6794 43.9237C-35.7765 43.5353 -36.5507 52.8573 -36.1636 64.5099C-36.1636 69.9477 -36.9378 76.9393 -40.0346 81.2119C-57.0672 102.963 -55.9059 127.434 -53.1961 153.069C-33.4538 160.449 -18.7439 155.011 -5.19528 139.475C3.321 130.153 15.7083 123.938 26.5472 116.558C15.7083 104.129 28.4828 94.8065 31.5796 84.7076C35.0635 72.6667 43.1927 62.1794 52.0961 45.4774C30.8054 45.4774 14.547 46.2542 -1.71134 45.089C-4.80817 45.089 -7.13079 36.9322 -10.6147 31.8828C21.1278 27.7396 55.58 33.5659 92.742 49.3616C100.484 76.5508 84.6128 99.4675 70.6771 116.558C57.5155 132.871 31.5796 138.698 2.54682 153.458C28.0957 154.623 45.9024 153.069 62.1608 157.342C78.4191 161.614 93.1291 172.102 110.162 181.035C116.355 162.391 125.646 142.194 129.904 120.442C131.839 110.343 124.872 98.6907 121.775 87.4266C138.42 76.9393 153.904 61.4025 172.485 56.3531C192.615 50.9153 215.067 55.1879 240.228 55.1879C240.616 77.7161 249.132 100.633 234.035 122.773C234.809 164.722 226.293 207.059 238.293 248.62C242.938 264.545 241.777 278.917 237.132 295.23C230.164 320.866 216.228 346.89 226.68 377.963L258.809 364.369C263.455 348.055 259.971 330.965 268.487 313.486C282.423 283.578 272.745 247.066 287.455 215.993C289.391 211.72 280.1 203.564 279.713 197.349C278.939 187.25 278.165 174.044 283.584 167.441C297.907 149.185 298.294 129.764 298.294 108.79C298.294 105.294 302.939 101.41 306.423 96.3602L274.681 64.1215C302.165 46.2542 319.198 24.8912 316.101 -8.51271C327.327 -6.57062 335.843 -3.85169 343.972 -4.24011C352.101 -4.24011 360.231 -7.73588 374.166 -10.8432L362.553 37.3206C378.425 37.3206 393.134 36.9322 408.232 37.3206C438.813 38.4859 450.426 50.5268 455.458 81.9887C456.232 87.4266 460.491 92.0876 463.587 98.3023C442.684 111.508 432.619 137.532 410.167 151.516C409.393 151.904 413.264 160.061 414.812 164.333C432.619 153.458 450.039 175.597 467.458 163.168L511.201 211.332C512.362 229.199 508.491 249.008 495.717 269.206C477.136 299.114 451.2 318.535 419.845 330.188C371.844 348.055 323.843 365.922 276.616 386.12C234.422 404.376 189.131 412.921 147.711 431.565C113.646 447.102 76.4836 452.151 42.4185 467.299C9.90178 481.283 -26.0989 487.886 -60.164 497.984C-86.1 505.753 -111.649 514.686 -137.585 523.232C-142.617 524.785 -147.262 528.281 -151.908 531C-164.295 516.629 -140.294 499.15 -155.392 485.167C-149.198 479.34 -143.778 470.018 -136.811 468.853C-98.4873 462.25 -61.3253 445.548 -23.3891 442.441C22.6762 438.945 38.1603 408.648 46.2895 376.798C52.4832 352.328 62.1608 331.353 73.3868 309.602C75.3223 306.106 75.3223 301.445 76.8707 293.288C64.8705 300.668 56.3542 307.271 47.0637 311.544C38.1603 315.816 28.0956 317.758 18.8052 320.866C-12.9373 331.353 -41.9701 345.725 -69.0674 366.311C-86.8742 379.905 -104.294 405.541 -133.327 391.946C-137.198 379.129 -143.778 367.088 -143.778 354.658C-143.778 337.956 -140.294 320.866 -134.488 305.329C-125.585 282.024 -122.875 257.942 -119.391 233.86C-115.907 209.39 -122.875 182.977 -102.745 162.391C-100.81 160.449 -100.423 156.953 -100.423 154.234C-100.036 130.541 -102.358 107.236 -91.5194 84.3192C-87.2613 75.774 -91.1323 65.2867 -100.423 59.072C-94.2291 52.4689 -86.8742 46.6427 -82.616 38.8743C-80.6805 35.767 -85.7128 28.7754 -88.8097 21.0071V20.6186ZM-119.778 360.484C-106.616 355.823 -96.9389 353.493 -88.8097 349.609C-57.0672 334.072 -26.8731 313.874 6.80495 303.775C26.1601 297.949 38.5475 290.958 47.4508 274.644C55.9671 258.331 75.7094 245.901 63.3221 221.431L14.9341 173.655C-10.2276 174.044 -37.3249 172.879 -64.4221 174.821C-58.6156 211.72 -91.9065 236.968 -83.0031 271.148C-97.7131 297.949 -117.842 322.419 -119.778 360.873V360.484ZM326.553 182.977C323.843 229.976 300.617 268.041 306.423 308.825L289.778 314.651L311.456 346.501C328.488 339.51 350.553 336.791 361.392 324.362C379.586 303.775 405.522 302.61 427.974 288.627C413.264 252.504 459.329 243.959 465.523 213.274C449.652 210.555 437.264 203.564 424.877 196.96C403.199 185.308 380.747 160.449 350.553 182.977C345.908 186.473 335.843 183.366 326.553 183.366V182.977ZM179.84 79.6582C175.582 114.616 168.227 143.747 156.614 171.713C144.227 201.621 133.388 232.307 121.775 262.992C118.678 270.76 113.646 278.528 112.871 286.685C110.549 316.205 107.452 330.965 99.7099 347.278C90.4194 367.476 82.2902 388.062 70.6771 415.251C109 403.987 143.065 407.095 168.227 379.905C154.679 376.41 143.84 371.749 149.646 355.823C152.356 348.055 155.84 339.51 160.872 332.907C183.324 302.999 189.518 269.983 187.195 233.472C186.034 217.935 179.84 200.068 196.099 186.862C196.099 156.565 196.099 125.88 194.937 95.5833C194.937 90.9223 186.808 87.0381 179.84 80.0466V79.6582ZM416.748 94.4181C404.748 82.3771 393.522 69.9477 380.747 59.072C367.199 47.8079 343.972 56.7415 344.747 74.2203C346.295 105.294 335.456 132.871 322.295 166.275C344.747 161.614 362.94 161.226 377.263 153.458C398.941 142.194 403.586 116.169 417.135 94.0297L416.748 94.4181Z"
                fill="white" />
        </g>
    </g>
    <defs>
        <radialGradient id="paint0_radial_2319_7439" cx="0" cy="0" r="1" gradientUnits="userSpaceOnUse"
            gradientTransform="translate(178.744 225) rotate(-1.76028) scale(339.439 692.726)">
            <stop stop-color="#FF5335" />
            <stop offset="1" stop-color="#D81619" />
        </radialGradient>
        <clipPath id="clip0_2319_7439">
            <rect width="720" height="450" rx="12" fill="white" />
        </clipPath>
    </defs>
</svg>