<svg xmlns="http://www.w3.org/2000/svg" width="60" height="60" viewBox="0 0 60 60" fill="none">
    <g clip-path="url(#clip0_361_494)">
        <path
            d="M20.8759 12.8543C20.9246 12.9608 20.9941 13.0565 21.0803 13.1357C21.1666 13.2149 21.2678 13.2762 21.378 13.3157C21.4882 13.3553 21.6052 13.3725 21.7222 13.3662C21.8391 13.3599 21.9536 13.3304 22.059 13.2792C22.1643 13.2281 22.2584 13.1564 22.3356 13.0683C22.4129 12.9803 22.4718 12.8778 22.5088 12.7667C22.5459 12.6556 22.5603 12.5382 22.5514 12.4214C22.5425 12.3047 22.5103 12.1909 22.4567 12.0867L20.2419 7.52578C20.1399 7.31615 19.9589 7.15559 19.7386 7.07944C19.5183 7.00329 19.2767 7.01778 19.0671 7.11973C18.8574 7.22167 18.6969 7.40271 18.6207 7.62303C18.5446 7.84335 18.5591 8.0849 18.661 8.29453L20.8759 12.8543ZM30.0001 11.5922C30.2332 11.5922 30.4567 11.4996 30.6216 11.3348C30.7864 11.1699 30.879 10.9464 30.879 10.7133V6.15234C30.879 5.91924 30.7864 5.69569 30.6216 5.53086C30.4567 5.36604 30.2332 5.27344 30.0001 5.27344C29.767 5.27344 29.5434 5.36604 29.3786 5.53086C29.2138 5.69569 29.1212 5.91924 29.1212 6.15234V10.7133C29.1212 10.9464 29.2138 11.1699 29.3786 11.3348C29.5434 11.4996 29.767 11.5922 30.0001 11.5922ZM37.9501 13.2609C38.0537 13.3113 38.1663 13.3407 38.2813 13.3474C38.3963 13.3542 38.5115 13.3383 38.6203 13.3005C38.7291 13.2628 38.8295 13.2039 38.9156 13.1273C39.0016 13.0508 39.0718 12.958 39.122 12.8543L41.3368 8.29453C41.3873 8.19073 41.4168 8.078 41.4237 7.96279C41.4306 7.84757 41.4148 7.73212 41.3771 7.62303C41.3394 7.51394 41.2806 7.41335 41.204 7.32699C41.1274 7.24063 41.0345 7.1702 40.9307 7.11973C40.8269 7.06925 40.7142 7.03971 40.599 7.0328C40.4838 7.02589 40.3683 7.04174 40.2592 7.07944C40.1502 7.11715 40.0496 7.17597 39.9632 7.25256C39.8768 7.32914 39.8064 7.42198 39.7559 7.52578L37.5411 12.0867C37.4907 12.1906 37.4612 12.3035 37.4545 12.4188C37.4477 12.5341 37.4638 12.6496 37.5018 12.7587C37.5398 12.8678 37.599 12.9683 37.6759 13.0545C37.7528 13.1407 37.846 13.2108 37.9501 13.2609ZM47.461 16.2516C47.5802 16.3104 47.7113 16.3409 47.8442 16.3406C48.0094 16.3409 48.1713 16.2945 48.3112 16.2068C48.4512 16.1191 48.5635 15.9937 48.6352 15.8449L49.8622 13.3207C49.9127 13.2169 49.9422 13.1042 49.9491 12.989C49.956 12.8737 49.9402 12.7583 49.9025 12.6492C49.8648 12.5401 49.8059 12.4395 49.7294 12.3532C49.6528 12.2668 49.5599 12.1964 49.4561 12.1459C49.3523 12.0954 49.2396 12.0659 49.1244 12.059C49.0092 12.0521 48.8937 12.0679 48.7846 12.1056C48.6755 12.1433 48.575 12.2021 48.4886 12.2787C48.4022 12.3553 48.3318 12.4482 48.2813 12.552L47.0544 15.0773C47.0039 15.1811 46.9743 15.2938 46.9674 15.4091C46.9605 15.5243 46.9764 15.6397 47.0141 15.7488C47.0519 15.8579 47.1108 15.9584 47.1875 16.0447C47.2642 16.131 47.3571 16.2013 47.461 16.2516ZM50.4141 50.0461L50.3966 50.025L47.9204 47.2125C46.9439 46.1002 45.7094 45.2444 44.3252 44.7201C42.941 44.1959 41.4493 44.0191 39.9809 44.2055L32.5899 45.143C31.7966 45.2473 30.9634 44.6461 30.8872 43.8398C30.8587 43.5524 30.9172 43.2629 31.0551 43.0091C31.193 42.7552 31.404 42.5486 31.6606 42.416L38.5009 38.9695C40.0816 38.1577 41.3071 36.7911 41.9424 35.1316C42.5778 33.4721 42.5783 31.6364 41.9438 29.9766L41.4845 28.7754C41.1768 27.972 40.7025 27.2429 40.0928 26.636C39.4831 26.0291 38.7518 25.5581 37.947 25.2541C37.1422 24.9502 36.2822 24.82 35.4235 24.8723C34.5648 24.9246 33.7269 25.1581 32.9649 25.5574C32.6551 25.7208 32.2958 25.7641 31.9561 25.6788C31.6163 25.5936 31.32 25.386 31.1239 25.0957C31.0143 24.9354 30.9391 24.7542 30.903 24.5634C30.8669 24.3726 30.8707 24.1764 30.9141 23.9871C31.07 23.2969 31.7766 22.9605 32.3485 22.6254C34.2483 21.5108 36.498 21.1522 38.6501 21.621C40.8022 22.0898 42.699 23.3517 43.963 25.1555C44.0968 25.3465 44.301 25.4765 44.5306 25.5169C44.7603 25.5573 44.9966 25.5049 45.1876 25.3711C45.3786 25.2373 45.5086 25.0331 45.549 24.8034C45.5895 24.5738 45.537 24.3375 45.4032 24.1465C44.4272 22.7577 43.1314 21.6243 41.6251 20.8418C40.2551 20.1276 38.744 19.7257 37.2002 19.6649C35.6565 19.6041 34.1184 19.886 32.6966 20.4902C32.6326 20.1973 32.6628 19.8917 32.783 19.617C32.9032 19.3423 33.1071 19.1127 33.3657 18.9609C36.2075 17.3062 39.6938 16.7848 42.6024 18.2895C43.8566 18.9408 44.9354 19.8846 45.7477 21.041L50.6345 28.0172C50.7006 28.1118 50.7848 28.1924 50.8821 28.2544C50.9794 28.3165 51.088 28.3587 51.2017 28.3788C51.3153 28.3989 51.4319 28.3964 51.5445 28.3714C51.6572 28.3465 51.7639 28.2996 51.8585 28.2334C51.953 28.1672 52.0337 28.0831 52.0957 27.9857C52.1577 27.8884 52.2 27.7798 52.2201 27.6662C52.2402 27.5525 52.2377 27.436 52.2127 27.3233C52.1878 27.2106 52.1409 27.1039 52.0747 27.0094L47.1868 20.0332C46.2121 18.6438 44.9164 17.5101 43.4098 16.7285C39.8591 14.8887 35.8934 15.4395 32.4774 17.4445C31.8297 17.8239 31.3373 18.4205 31.0876 19.1285C30.8379 19.8364 30.847 20.6099 31.1134 21.3117C30.705 21.5214 30.3298 21.7903 30.0001 22.1098C29.6724 21.7879 29.2968 21.5187 28.8868 21.3117C29.1532 20.6099 29.1623 19.8364 28.9126 19.1285C28.6629 18.4205 28.1705 17.8239 27.5227 17.4445L26.7552 16.9922C24.4744 15.6528 21.7727 15.2218 19.1884 15.7849C16.604 16.348 14.3266 17.864 12.8098 20.0309L0.159459 38.0918C0.0347962 38.2828 -0.0107084 38.5149 0.0325612 38.7388C0.0758308 38.9628 0.204485 39.1612 0.391334 39.292C0.578183 39.4229 0.808589 39.476 1.03386 39.4401C1.25913 39.4042 1.46161 39.2821 1.59852 39.0996L14.2548 21.0387C15.5193 19.2355 17.416 17.9742 19.5679 17.5054C21.7198 17.0367 23.9693 17.3948 25.8692 18.5086C26.5337 18.8977 27.5192 19.5363 27.3059 20.4879C25.8841 19.8836 24.346 19.6018 22.8023 19.6626C21.2585 19.7234 19.7474 20.1253 18.3774 20.8395C16.8711 21.6219 15.5753 22.7554 14.5993 24.1441C14.5331 24.2387 14.4861 24.3454 14.4611 24.4581C14.436 24.5708 14.4335 24.6874 14.4535 24.8011C14.4735 24.9148 14.5157 25.0235 14.5778 25.1209C14.6398 25.2183 14.7204 25.3025 14.8149 25.3687C14.9095 25.435 15.0162 25.482 15.1289 25.507C15.2416 25.532 15.3582 25.5346 15.4719 25.5146C15.5856 25.4945 15.6943 25.4523 15.7917 25.3903C15.8891 25.3283 15.9733 25.2477 16.0395 25.1531C17.3039 23.3491 19.2013 22.0873 21.3539 21.6189C23.5066 21.1505 25.7566 21.5098 27.6563 22.6254L28.4227 23.0742C28.7432 23.2621 28.9774 23.5681 29.0751 23.9265C29.1728 24.285 29.1264 24.6674 28.9456 24.992C28.7649 25.3166 28.4642 25.5575 28.108 25.6632C27.7519 25.7689 27.3685 25.7309 27.0399 25.5574C26.2778 25.1573 25.4394 24.9231 24.5802 24.8704C23.721 24.8177 22.8604 24.9477 22.055 25.2517C21.2496 25.5557 20.5178 26.0269 19.9078 26.6343C19.2977 27.2417 18.8233 27.9714 18.5157 28.7754L18.0575 29.9754C17.4229 31.6365 17.424 33.4735 18.0607 35.1339C18.6975 36.7943 19.9249 38.161 21.5075 38.9719L28.3337 42.4125C28.5921 42.5442 28.8047 42.7508 28.944 43.0052C29.0832 43.2596 29.1425 43.55 29.1141 43.8387C29.0391 44.6414 28.2001 45.2449 27.4114 45.1418L23.2032 44.6074C23.0888 44.5929 22.9726 44.601 22.8613 44.6314C22.7501 44.6617 22.6459 44.7137 22.5547 44.7843C22.4635 44.8549 22.3871 44.9428 22.3299 45.043C22.2727 45.1431 22.2357 45.2535 22.2212 45.368C22.2066 45.4824 22.2148 45.5985 22.2451 45.7098C22.2755 45.8211 22.3274 45.9253 22.3981 46.0165C22.4687 46.1077 22.5566 46.1841 22.6567 46.2413C22.7569 46.2985 22.8673 46.3355 22.9817 46.35L27.1876 46.8855C27.7023 46.9462 28.224 46.8869 28.712 46.7122C29.1999 46.5376 29.6408 46.2524 30.0001 45.8789C30.3592 46.2527 30.8 46.5381 31.288 46.7128C31.776 46.8874 32.2979 46.9466 32.8126 46.8855L40.2036 45.948C41.3868 45.7985 42.5886 45.9412 43.7038 46.3637C44.819 46.7862 45.8138 47.4755 46.6009 48.3715L49.0688 51.184L56.0825 59.6883C56.1549 59.7804 56.245 59.8571 56.3474 59.9139C56.4499 59.9707 56.5627 60.0064 56.6792 60.019C56.7956 60.0316 56.9134 60.0208 57.0257 59.9871C57.1379 59.9535 57.2423 59.8978 57.3327 59.8233C57.4231 59.7488 57.4976 59.6569 57.552 59.5532C57.6064 59.4494 57.6395 59.3358 57.6493 59.2191C57.6592 59.1023 57.6456 58.9848 57.6094 58.8734C57.5731 58.762 57.515 58.6589 57.4384 58.5703L50.4141 50.0461ZM30.0001 41.4961C29.7495 41.2323 29.4563 41.0124 29.1329 40.8457L22.3067 37.4051C21.1106 36.791 20.1832 35.7571 19.7023 34.5016C19.2213 33.246 19.2207 31.8572 19.7005 30.6012L20.1563 29.4023C20.3754 28.8309 20.7129 28.3124 21.1467 27.8807C21.5805 27.4491 22.1008 27.1142 22.6733 26.898C23.2457 26.6818 23.8575 26.5893 24.4683 26.6264C25.0792 26.6636 25.6752 26.8297 26.2173 27.1137C26.8294 27.4355 27.5298 27.549 28.2122 27.4369C28.8946 27.3249 29.5219 26.9933 29.9989 26.4926C30.4759 26.9933 31.1032 27.3249 31.7856 27.4369C32.4681 27.549 33.1684 27.4355 33.7806 27.1137C34.3227 26.8293 34.919 26.6629 35.5301 26.6255C36.1411 26.5881 36.7532 26.6806 37.326 26.8968C37.8988 27.113 38.4193 27.448 38.8533 27.8799C39.2872 28.3118 39.6248 28.8306 39.8438 29.4023L40.302 30.6012C40.7806 31.8554 40.7801 33.2421 40.3006 34.496C39.8211 35.75 38.8962 36.7832 37.7028 37.398L30.8626 40.8457C30.5406 41.0125 30.249 41.2324 30.0001 41.4961ZM59.8419 38.0918L53.9743 29.7152C53.8405 29.5242 53.6363 29.3942 53.4067 29.3538C53.177 29.3134 52.9407 29.3658 52.7497 29.4996C52.5587 29.6334 52.4287 29.8376 52.3883 30.0673C52.3478 30.2969 52.4003 30.5332 52.5341 30.7242L58.4028 39.0996C58.4672 39.1983 58.5508 39.283 58.6486 39.3488C58.7464 39.4145 58.8564 39.4599 58.9722 39.4822C59.0879 39.5046 59.2069 39.5034 59.3221 39.4789C59.4374 39.4543 59.5465 39.4068 59.643 39.3392C59.7396 39.2716 59.8215 39.1853 59.884 39.0854C59.9465 38.9855 59.9883 38.874 60.0068 38.7576C60.0254 38.6413 60.0203 38.5223 59.992 38.408C59.9637 38.2936 59.9126 38.1861 59.8419 38.0918ZM20.0192 44.2008C18.551 44.0147 17.0596 44.1915 15.6756 44.7157C14.2916 45.24 13.0574 46.0957 12.0809 47.2078L9.60946 50.025L9.59188 50.0461L2.56415 58.5621C2.48752 58.6507 2.42938 58.7538 2.39315 58.8652C2.35692 58.9766 2.34333 59.0941 2.35318 59.2108C2.36303 59.3276 2.39611 59.4412 2.45049 59.5449C2.50487 59.6487 2.57945 59.7406 2.66984 59.8151C2.76023 59.8896 2.8646 59.9453 2.97683 59.9789C3.08906 60.0126 3.20687 60.0234 3.32335 60.0108C3.43982 59.9982 3.55261 59.9625 3.65507 59.9057C3.75754 59.8489 3.84761 59.7722 3.92001 59.6801L10.9337 51.1758L13.4016 48.3633C14.1898 47.4673 15.1857 46.7783 16.302 46.3566C17.4184 45.9349 18.6211 45.7934 19.8048 45.9445C19.9202 45.9609 20.0376 45.9541 20.1504 45.9246C20.2631 45.8952 20.3689 45.8436 20.4615 45.7728C20.5541 45.7021 20.6318 45.6137 20.6899 45.5127C20.748 45.4117 20.7854 45.3001 20.8001 45.1845C20.8147 45.0689 20.8061 44.9515 20.775 44.8392C20.7438 44.7269 20.6906 44.622 20.6185 44.5304C20.5464 44.4389 20.4568 44.3626 20.3549 44.306C20.253 44.2494 20.1409 44.2136 20.0251 44.2008H20.0192ZM11.3673 15.8449C11.439 15.9937 11.5514 16.1191 11.6913 16.2068C11.8313 16.2945 11.9931 16.3409 12.1583 16.3406C12.2912 16.3409 12.4223 16.3104 12.5415 16.2516C12.7507 16.15 12.911 15.9695 12.9873 15.7498C13.0635 15.53 13.0494 15.289 12.9481 15.0797L11.7188 12.552C11.6684 12.4482 11.5979 12.3553 11.5116 12.2787C11.4252 12.2021 11.3246 12.1433 11.2155 12.1056C11.1064 12.0679 10.991 12.0521 10.8758 12.059C10.7606 12.0659 10.6478 12.0954 10.544 12.1459C10.4402 12.1964 10.3474 12.2668 10.2708 12.3532C10.1942 12.4395 10.1354 12.5401 10.0977 12.6492C10.0215 12.8695 10.036 13.1111 10.138 13.3207L11.3673 15.8449Z"
            fill="#D81619" />
    </g>
    <defs>
        <clipPath id="clip0_361_494">
            <rect width="60" height="60" fill="white" />
        </clipPath>
    </defs>
</svg>