<svg xmlns="http://www.w3.org/2000/svg" width="60" height="60" viewBox="0 0 60 60" fill="none">
    <path
        d="M58.3081 29.8707C59.6952 27.1267 59.1208 23.8694 56.8789 21.7652L53.625 18.7111C52.8744 18.0068 52.4156 17.2119 52.1808 16.2095L51.1627 11.8646C50.4616 8.87097 47.9278 6.74483 44.8577 6.57409L40.4021 6.32624C39.3743 6.26905 38.5118 5.95511 37.6877 5.33835L34.1151 2.66413C31.654 0.821709 28.3461 0.821475 25.8846 2.66413L22.312 5.33823C21.4879 5.95511 20.6253 6.26905 19.5976 6.32624L15.142 6.57409C12.072 6.74483 9.53821 8.87097 8.83696 11.8646L7.81895 16.2096C7.58423 17.2119 7.12532 18.0068 6.37485 18.7112L3.12079 21.7652C0.878876 23.8693 0.30454 27.1267 1.69157 29.8707L3.70485 33.8533C4.16927 34.7721 4.32864 35.676 4.20642 36.6981L3.67673 41.1292C3.31192 44.182 4.96567 47.0464 7.792 48.257L11.8943 50.0139C12.8404 50.4191 13.5436 51.009 14.1071 51.8705L16.5497 55.6053C18.2324 58.1785 21.3404 59.3099 24.2838 58.4203L28.5555 57.1294C29.5409 56.8315 30.4588 56.8316 31.444 57.1294L35.7157 58.4203C36.3854 58.6227 37.0633 58.7205 37.7313 58.7204C39.9992 58.7203 42.15 57.5931 43.4498 55.6053L45.8925 51.8705C46.4559 51.009 47.159 50.419 48.1052 50.0137L52.2075 48.2569C55.0338 47.0463 56.6877 44.1819 56.3227 41.1291L55.7931 36.6978C55.6708 35.6758 55.8302 34.7719 56.2946 33.8532L58.3081 29.8707ZM54.6215 33.0076C53.9914 34.2541 53.7657 35.5341 53.9315 36.9206L54.4612 41.3517C54.7306 43.6058 53.5563 45.6397 51.4695 46.5335L47.3673 48.2904C46.0835 48.8402 45.0879 49.6757 44.3234 50.8444L41.8808 54.5792C40.6384 56.4791 38.4311 57.2823 36.2582 56.6256L31.9865 55.3346C31.3181 55.1326 30.6591 55.0316 29.9999 55.0316C29.3408 55.0316 28.6815 55.1326 28.0132 55.3346L23.7415 56.6256C21.5686 57.2822 19.3615 56.4791 18.1189 54.5792L15.6764 50.8444C14.9118 49.6755 13.9161 48.8401 12.6324 48.2904L8.53017 46.5335C6.44329 45.6398 5.26907 43.6058 5.53849 41.3517L6.06817 36.9206C6.23399 35.5339 6.00829 34.254 5.37817 33.0075L3.36489 29.0249C2.34091 26.9988 2.7486 24.686 4.40388 23.1323L7.65794 20.0783C8.67618 19.1226 9.32599 17.9971 9.6445 16.6372L10.6625 12.2923C11.1802 10.082 12.9794 8.57226 15.2461 8.44628L19.7017 8.19843C21.0961 8.12085 22.3174 7.67624 23.4355 6.8394L27.0081 4.16519C28.8254 2.80487 31.1742 2.80476 32.9915 4.16519L36.5641 6.8394C37.6822 7.67624 38.9036 8.12085 40.2979 8.19843L44.7535 8.44628C47.0203 8.57237 48.8193 10.082 49.3371 12.2924L50.3551 16.6372C50.6736 17.9972 51.3235 19.1228 52.3418 20.0783L55.5957 23.1323C57.251 24.6859 57.6587 26.9988 56.6347 29.0249L54.6215 33.0076ZM30 10.8343C19.432 10.8343 10.8344 19.4319 10.8344 29.9999C10.8344 40.5678 19.432 49.1654 30 49.1654C40.5679 49.1654 49.1655 40.5678 49.1655 29.9999C49.1655 19.4319 40.5679 10.8343 30 10.8343ZM30 47.2904C20.4659 47.2904 12.7094 39.5339 12.7094 29.9999C12.7094 20.4658 20.4659 12.7093 30 12.7093C39.534 12.7093 47.2905 20.4658 47.2905 29.9999C47.2905 39.5339 39.534 47.2904 30 47.2904ZM37.9796 21.3128C37.975 21.3128 37.9702 21.3128 37.9657 21.3128C37.0289 21.3164 36.1503 21.6846 35.4921 22.3496L27.7177 30.2013L24.507 26.9905C23.844 26.3275 22.9623 25.9623 22.0243 25.9623C21.0862 25.9623 20.2046 26.3275 19.5415 26.9906C18.1726 28.3596 18.1726 30.5871 19.5415 31.956L25.2439 37.6584C25.9284 38.3428 26.8275 38.6851 27.7267 38.6851C28.6258 38.6851 29.525 38.3429 30.2095 37.6584C32.3715 35.4963 34.5529 33.2836 36.6627 31.1439C37.9303 29.858 39.1981 28.5722 40.4689 27.2894C41.8285 25.9174 41.8214 23.6941 40.453 22.3333C39.791 21.6748 38.9131 21.3128 37.9796 21.3128ZM39.1371 25.9696C37.8651 27.2535 36.5962 28.5404 35.3273 29.8274C33.22 31.9649 31.0409 34.1751 28.8836 36.3325C28.2457 36.9704 27.2075 36.9704 26.5698 36.3325L20.8674 30.63C20.2296 29.9921 20.2296 28.9541 20.8674 28.3161C21.1763 28.0072 21.5872 27.8371 22.0243 27.8371C22.4613 27.8371 22.8723 28.0072 23.1812 28.3161L27.0581 32.1932C27.234 32.3689 27.4724 32.4677 27.721 32.4677H27.7234C27.9729 32.4671 28.2118 32.3671 28.3872 32.1899L36.8245 23.6686C37.1299 23.36 37.5378 23.1892 37.9729 23.1875H37.9795C38.4142 23.1875 38.8228 23.356 39.131 23.6625C39.7674 24.2958 39.7702 25.3305 39.1371 25.9696Z"
        fill="#D81619" />
</svg>