<svg xmlns="http://www.w3.org/2000/svg" width="40" height="25" viewBox="0 0 40 25" fill="none">
    <path
        d="M38.1455 12.5002C38.1455 18.4741 33.2882 23.3872 27.2585 23.3872C21.2847 23.3872 16.3716 18.4741 16.3716 12.5002C16.3716 6.52636 21.2288 1.61328 27.2027 1.61328C33.2882 1.61328 38.1455 6.52636 38.1455 12.5002Z"
        fill="#F9B50B" />
    <path
        d="M23.573 12.556C23.573 11.7744 23.4614 10.9928 23.3497 10.267H16.65C16.7059 9.87619 16.8175 9.5412 16.9292 9.09456H22.9031C22.7914 8.70375 22.6239 8.31293 22.4564 7.92212H17.3758C17.5433 7.53131 17.7667 7.19633 17.99 6.74968H21.8423C21.619 6.35887 21.3398 5.96806 21.0048 5.57724H18.8833C19.2182 5.18643 19.5532 4.85145 19.9999 4.46063C18.1016 2.67406 15.5334 1.61328 12.6861 1.61328C6.76806 1.78077 1.85498 6.52636 1.85498 12.5002C1.85498 18.4741 6.71223 23.3872 12.7419 23.3872C15.5893 23.3872 18.1016 22.2705 20.0557 20.5398C20.4465 20.2048 20.7815 19.814 21.1723 19.3674H18.9391C18.6599 19.0324 18.3808 18.6416 18.1575 18.2508H21.9539C22.1773 17.9158 22.4006 17.525 22.5681 17.0783H17.4875C17.32 16.7433 17.1525 16.3525 17.0409 15.9059H23.0147C23.3497 14.9009 23.573 13.7843 23.573 12.556Z"
        fill="#C8191C" />
    <path
        d="M16.5943 15.291L16.7618 14.2861C16.706 14.2861 16.5943 14.3419 16.4827 14.3419C16.0919 14.3419 16.036 14.1186 16.0919 14.0069L16.4269 11.997H17.041L17.2085 10.8804H16.6502L16.7618 10.2104H15.5894C15.5894 10.2104 14.9194 14.0069 14.9194 14.4536C14.9194 15.1235 15.3102 15.4585 15.8686 15.4585C16.2035 15.4585 16.4827 15.3469 16.5943 15.291Z"
        fill="white" />
    <path
        d="M16.9854 13.4472C16.9854 15.0663 18.102 15.4571 18.9952 15.4571C19.8327 15.4571 20.2235 15.2896 20.2235 15.2896L20.4468 14.173C20.4468 14.173 19.8327 14.4522 19.2186 14.4522C17.9345 14.4522 18.1578 13.5031 18.1578 13.5031H20.5027C20.5027 13.5031 20.6702 12.7773 20.6702 12.4423C20.6702 11.7165 20.2793 10.7674 18.9952 10.7674C17.8786 10.7116 16.9854 11.9957 16.9854 13.4472ZM18.9952 11.7723C19.6094 11.7723 19.4977 12.4981 19.4977 12.554H18.2136C18.2695 12.4981 18.3811 11.7723 18.9952 11.7723Z"
        fill="white" />
    <path
        d="M26.3078 15.2917L26.5311 14.0076C26.5311 14.0076 25.9728 14.2868 25.5262 14.2868C24.7446 14.2868 24.3538 13.6726 24.3538 12.9468C24.3538 11.5511 25.0237 10.8253 25.8612 10.8253C26.4195 10.8253 26.922 11.1603 26.922 11.1603L27.0895 9.93198C27.0895 9.93198 26.4195 9.65283 25.7495 9.65283C24.4096 9.65283 23.1255 10.8253 23.1255 13.0027C23.1255 14.4542 23.7955 15.4034 25.1912 15.4034C25.6937 15.4592 26.3078 15.2917 26.3078 15.2917Z"
        fill="white" />
    <path
        d="M10.2858 10.7134C9.50416 10.7134 8.89002 10.9367 8.89002 10.9367L8.72253 11.9416C8.72253 11.9416 9.22501 11.7183 10.0066 11.7183C10.3974 11.7183 10.7324 11.7742 10.7324 12.1091C10.7324 12.3325 10.6766 12.3883 10.6766 12.3883H10.1741C9.16918 12.3883 8.1084 12.7791 8.1084 14.119C8.1084 15.1798 8.77836 15.4031 9.22501 15.4031C10.0066 15.4031 10.3974 14.9007 10.4533 14.9007L10.3974 15.3473H11.3466L11.7932 12.165C11.7932 10.7692 10.6766 10.7134 10.2858 10.7134ZM10.5091 13.2816C10.5091 13.4491 10.3974 14.3982 9.72748 14.3982C9.3925 14.3982 9.28084 14.119 9.28084 13.9515C9.28084 13.6724 9.44833 13.2816 10.3416 13.2816C10.4533 13.2816 10.5091 13.2816 10.5091 13.2816Z"
        fill="white" />
    <path
        d="M12.9085 15.4028C13.1876 15.4028 14.6392 15.4586 14.6392 13.8954C14.6392 12.4438 13.2434 12.723 13.2434 12.1646C13.2434 11.8855 13.4668 11.7738 13.8576 11.7738C14.0251 11.7738 14.6392 11.8297 14.6392 11.8297L14.8067 10.7689C14.8067 10.7689 14.4159 10.6572 13.6901 10.6572C12.8526 10.6572 11.9593 10.9922 11.9593 12.1646C11.9593 13.5046 13.4109 13.3929 13.4109 13.8954C13.4109 14.2304 13.0201 14.2862 12.741 14.2862C12.2385 14.2862 11.6802 14.1187 11.6802 14.1187L11.5127 15.1795C11.6244 15.2912 11.9593 15.4028 12.9085 15.4028Z"
        fill="white" />
    <path
        d="M35.9107 9.82031L35.6874 11.3836C35.6874 11.3836 35.2407 10.8253 34.5708 10.8253C33.51 10.8253 32.6167 12.1094 32.6167 13.6168C32.6167 14.5659 33.0633 15.515 34.0683 15.515C34.7383 15.515 35.1849 15.0684 35.1849 15.0684L35.1291 15.4592H36.3015L37.139 9.93197L35.9107 9.82031ZM35.3524 12.8352C35.3524 13.4493 35.0732 14.2867 34.4033 14.2867C34.0125 14.2867 33.7891 13.9518 33.7891 13.3376C33.7891 12.3885 34.18 11.8302 34.7383 11.8302C35.1291 11.886 35.3524 12.1652 35.3524 12.8352Z"
        fill="white" />
    <path
        d="M3.97647 15.3475L4.64644 11.2161L4.7581 15.3475H5.53972L7.04715 11.2161L6.43301 15.3475H7.66128L8.6104 9.82031H6.71216L5.53972 13.226L5.48389 9.82031H3.80898L2.85986 15.3475H3.97647Z"
        fill="white" />
    <path
        d="M21.8427 15.3465C22.1777 13.4482 22.2335 11.885 23.071 12.1641C23.1826 11.4384 23.3501 11.1034 23.4618 10.8242H23.2385C22.736 10.8242 22.2893 11.4942 22.2893 11.4942L22.401 10.88H21.2844L20.5586 15.3465H21.8427V15.3465Z"
        fill="white" />
    <path
        d="M28.9894 10.7134C28.2078 10.7134 27.5936 10.9367 27.5936 10.9367L27.4261 11.9416C27.4261 11.9416 27.9286 11.7183 28.7102 11.7183C29.1011 11.7183 29.436 11.7742 29.436 12.1091C29.436 12.3325 29.3802 12.3883 29.3802 12.3883H28.8777C27.8728 12.3883 26.812 12.7791 26.812 14.119C26.812 15.1798 27.482 15.4031 27.9286 15.4031C28.7102 15.4031 29.1011 14.9007 29.1569 14.9007L29.1011 15.3473H30.1618L30.6085 12.165C30.6085 10.7692 29.3802 10.7134 28.9894 10.7134ZM29.2685 13.2816C29.2685 13.4491 29.1569 14.3982 28.4869 14.3982C28.1519 14.3982 28.0403 14.119 28.0403 13.9515C28.0403 13.6724 28.2078 13.2816 29.1011 13.2816C29.2127 13.2816 29.2127 13.2816 29.2685 13.2816Z"
        fill="white" />
    <path
        d="M31.5019 15.3465C31.8369 13.4482 31.8927 11.885 32.7301 12.1641C32.8418 11.4384 33.0093 11.1034 33.121 10.8242H32.8976C32.3952 10.8242 31.9485 11.4942 31.9485 11.4942L32.0602 10.88H30.9436L30.2178 15.3465H31.5019V15.3465Z"
        fill="white" />
</svg>