<svg xmlns="http://www.w3.org/2000/svg" width="25" height="25" viewBox="0 0 25 25" fill="none">

    <path
        d="M19.1517 15.5627C19.5467 15.732 19.716 16.2962 19.716 16.5784C19.7725 17.0298 19.6596 17.2555 19.4903 17.2555C19.321 17.2555 19.0953 17.0862 18.8696 16.6912C18.6439 16.2962 18.531 15.9012 18.6439 15.6755C18.8132 15.5627 18.9825 15.5062 19.1517 15.5627Z"
        fill="#F28A1A" />
    <path
        d="M16.8362 17.311C17.0619 17.311 17.3441 17.4239 17.6262 17.6496C18.0777 18.0446 18.2469 18.496 18.0212 18.8346C17.9084 19.0039 17.6262 19.1168 17.4005 19.1168C17.1184 19.1168 16.8362 19.0039 16.6669 18.8346C16.2155 18.4396 16.1026 17.8753 16.3848 17.5368C16.4412 17.4239 16.6105 17.311 16.8362 17.311Z"
        fill="#F28A1A" />
    <path
        d="M11.4754 21.7698C5.60674 21.7698 0.866699 17.0297 0.866699 11.2175C0.866699 5.40536 5.60674 0.608887 11.4754 0.608887C17.344 0.608887 22.084 5.34893 22.084 11.2175C22.084 13.1926 21.5197 15.0547 20.6169 16.6347C20.5604 16.6912 20.504 16.6912 20.504 16.5783C20.109 13.9826 18.529 12.5718 16.2718 12.1204C16.0461 12.064 16.0461 11.9511 16.3283 11.9511C17.0618 11.8947 18.0211 11.8947 18.5854 12.0076C18.6419 11.7254 18.6419 11.4433 18.6419 11.2175C18.6419 7.38037 15.4818 4.22035 11.6446 4.22035C7.80747 4.22035 4.64745 7.38037 4.64745 11.2175C4.64745 15.0547 7.80747 18.2148 11.6446 18.2148H11.9832C11.8704 17.594 11.8139 16.9733 11.8704 16.2962C11.8704 15.8447 11.9832 15.7883 12.1525 16.1269C13.1118 17.8197 14.5225 19.2869 17.2311 19.9076C19.4319 20.4155 21.6326 20.9798 24.059 23.9705C24.2848 24.2527 23.9462 24.5348 23.7205 24.3091C21.294 22.1648 19.0933 21.4312 17.0618 21.4312C14.5225 21.4876 12.9989 21.7698 11.4754 21.7698Z"
        fill="#F28A1A" />

</svg>