<svg xmlns="http://www.w3.org/2000/svg" width="25" height="25" viewBox="0 0 25 25" fill="none">
    <g clip-path="url(#clip0_2304_9914)">
        <path
            d="M21.6889 5.39941C22.2405 6.11264 22.7076 6.88749 23.0804 7.70842L12.5024 15.5064L8.08154 12.735V9.40096L12.5024 12.1723L21.6889 5.39941Z"
            fill="#21A038" />
        <path
            d="M3.57002 12.4996C3.57002 12.35 3.57366 12.2014 3.58096 12.0537L0.901798 11.9224C0.892679 12.1139 0.88721 12.3072 0.88721 12.5023C0.88607 14.027 1.18595 15.5368 1.76964 16.9452C2.35333 18.3536 3.20935 19.6329 4.28859 20.7097L6.18899 18.8102C5.35823 17.9828 4.69918 16.9993 4.24973 15.9163C3.80028 14.8333 3.56928 13.6722 3.57002 12.4996Z"
            fill="url(#paint0_linear_2304_9914)" />
        <path
            d="M12.5003 3.56976C12.6498 3.56976 12.7984 3.57523 12.9461 3.58252L13.0802 0.902359C12.8881 0.89324 12.6948 0.88868 12.5003 0.88868C10.975 0.88682 9.4644 1.18627 8.05521 1.76985C6.64601 2.35342 5.36597 3.20962 4.28857 4.28928L6.18897 6.18974C7.01641 5.35868 7.99997 4.69937 9.08309 4.24974C10.1662 3.80011 11.3275 3.56902 12.5003 3.56976Z"
            fill="url(#paint1_linear_2304_9914)" />
        <path
            d="M12.5003 21.4301C12.3508 21.4301 12.2021 21.4301 12.0535 21.4182L11.9194 24.0975C12.1121 24.1072 12.3058 24.1121 12.5003 24.1121C14.0249 24.1137 15.5348 23.814 16.9432 23.2303C18.3517 22.6465 19.6309 21.7902 20.7074 20.7106L18.8107 18.811C17.9831 19.6417 16.9996 20.3006 15.9167 20.7501C14.8338 21.1995 13.6728 21.4306 12.5003 21.4301Z"
            fill="url(#paint2_linear_2304_9914)" />
        <path
            d="M17.5345 5.12771L19.7923 3.46343C17.7286 1.79228 15.1526 0.882568 12.4971 0.887225V3.56921C14.2952 3.56698 16.0517 4.11042 17.5345 5.12771Z"
            fill="url(#paint3_linear_2304_9914)" />
        <path
            d="M24.113 12.5C24.1144 11.8023 24.0534 11.1058 23.9305 10.4189L21.4311 12.261C21.4311 12.3404 21.4311 12.4197 21.4311 12.5C21.4317 13.7478 21.1701 14.9818 20.6634 16.122C20.1566 17.2622 19.4159 18.2832 18.4893 19.1188L20.2921 21.1114C21.4968 20.0238 22.4594 18.6952 23.1176 17.2118C23.7759 15.7282 24.115 14.1229 24.113 12.5Z"
            fill="#21A038" />
        <path
            d="M12.4997 21.4302C11.2519 21.4306 10.0179 21.169 8.87757 20.6622C7.7373 20.1554 6.71615 19.4148 5.88025 18.4883L3.88867 20.2903C4.97607 21.4952 6.30457 22.458 7.78803 23.1164C9.27147 23.7748 10.8767 24.114 12.4997 24.1121V21.4302Z"
            fill="url(#paint4_linear_2304_9914)" />
        <path
            d="M6.51181 5.88076L4.7099 3.88818C3.50489 4.97555 2.54188 6.30406 1.88333 7.78757C1.22479 9.27106 0.885412 10.8764 0.887214 12.4995H3.57002C3.56947 11.2518 3.83106 10.0178 4.33783 8.87761C4.8446 7.73744 5.58526 6.71643 6.51181 5.88076Z"
            fill="url(#paint5_linear_2304_9914)" />
    </g>
    <defs>
        <linearGradient id="paint0_linear_2304_9914" x1="4.83118" y1="20.3751" x2="1.90014" y2="11.9024"
            gradientUnits="userSpaceOnUse">
            <stop offset="0.14" stop-color="#F1E813" />
            <stop offset="0.3" stop-color="#E6E418" />
            <stop offset="0.58" stop-color="#C9DA26" />
            <stop offset="0.89" stop-color="#A2CC39" />
        </linearGradient>
        <linearGradient id="paint1_linear_2304_9914" x1="5.05457" y1="4.76348" x2="12.6042" y2="1.88651"
            gradientUnits="userSpaceOnUse">
            <stop offset="0.06" stop-color="#0FA7DF" />
            <stop offset="0.54" stop-color="#0098F8" />
            <stop offset="0.92" stop-color="#0290EA" />
        </linearGradient>
        <linearGradient id="paint2_linear_2304_9914" x1="11.7426" y1="22.4934" x2="20.2797" y2="20.5648"
            gradientUnits="userSpaceOnUse">
            <stop offset="0.12" stop-color="#A2CC39" />
            <stop offset="0.28" stop-color="#86C239" />
            <stop offset="0.87" stop-color="#219F38" />
        </linearGradient>
        <linearGradient id="paint3_linear_2304_9914" x1="11.939" y1="1.78548" x2="19.2379" y2="4.0378"
            gradientUnits="userSpaceOnUse">
            <stop offset="0.06" stop-color="#0290EA" />
            <stop offset="0.79" stop-color="#0C89CA" />
        </linearGradient>
        <linearGradient id="paint4_linear_2304_9914" x1="4.56165" y1="19.9638" x2="12.5062" y2="22.9328"
            gradientUnits="userSpaceOnUse">
            <stop offset="0.13" stop-color="#F1E813" />
            <stop offset="0.3" stop-color="#EAE616" />
            <stop offset="0.53" stop-color="#D8DF1F" />
            <stop offset="0.8" stop-color="#BAD52D" />
            <stop offset="0.98" stop-color="#A2CC39" />
        </linearGradient>
        <linearGradient id="paint5_linear_2304_9914" x1="1.88665" y1="12.8242" x2="5.07577" y2="4.52844"
            gradientUnits="userSpaceOnUse">
            <stop offset="0.07" stop-color="#A2CC39" />
            <stop offset="0.26" stop-color="#81C45E" />
            <stop offset="0.92" stop-color="#0FA7DF" />
        </linearGradient>
        <clipPath id="clip0_2304_9914">
            <rect width="25" height="25" fill="white" />
        </clipPath>
    </defs>
</svg>