<svg width="19" height="25" viewBox="0 0 19 25" fill="none" xmlns="http://www.w3.org/2000/svg">
    <g clip-path="url(#clip0_2304_9914)">
        <path d="M0 6.00635L2.81743 10.9849V14.0217L0.00329592 18.9904L0 6.00635Z" fill="#5B57A2" />
        <path d="M10.8179 9.17348L13.4579 7.57383L18.8609 7.56885L10.8179 12.4399V9.17348Z" fill="#D90751" />
        <path d="M10.8027 5.97701L10.8177 12.5684L7.99365 10.853V1L10.8027 5.97701Z" fill="#FAB718" />
        <path d="M18.8607 7.56861L13.4575 7.57359L10.8027 5.97701L7.99365 1L18.8607 7.56861Z" fill="#ED6F26" />
        <path d="M10.8177 19.018V15.82L7.99365 14.1372L7.9952 24L10.8177 19.018Z" fill="#63B22F" />
        <path d="M13.4512 17.4329L2.81723 10.9849L0 6.00635L18.8494 17.4264L13.4512 17.4329Z" fill="#1487C9" />
        <path d="M7.99561 24.0003L10.8177 19.0184L13.4511 17.4333L18.8493 17.4268L7.99561 24.0003Z" fill="#017F36" />
        <path d="M0.00341797 18.9906L8.01696 14.1376L5.32284 12.5034L2.81755 14.0218L0.00341797 18.9906Z"
            fill="#984995" />
    </g>
    <defs>
        <clipPath id="clip0_2304_9914">
            <rect width="19" height="23" fill="white" transform="translate(0 1)" />
        </clipPath>
    </defs>
</svg>