<svg xmlns="http://www.w3.org/2000/svg" width="34" height="25" viewBox="0 0 34 25" fill="none">
    <path
        d="M31.3221 7.56494H29.2415C28.6125 7.56494 28.1286 7.75849 27.8383 8.38751L23.8706 17.4358H26.677C26.677 17.4358 27.1609 16.2261 27.2577 15.9358C27.548 15.9358 30.306 15.9358 30.6931 15.9358C30.7899 16.2745 31.0318 17.3874 31.0318 17.3874H33.5479L31.3221 7.56494ZM28.0318 13.9036C28.2738 13.3229 29.0963 11.1455 29.0963 11.1455C29.0963 11.1939 29.3383 10.5649 29.435 10.2262L29.6286 11.0971C29.6286 11.0971 30.1608 13.4681 30.2576 13.9519H28.0318V13.9036Z"
        fill="#3362AB" />
    <path
        d="M24.0631 14.1935C24.0631 16.2258 22.2244 17.5806 19.3696 17.5806C18.1599 17.5806 16.9987 17.3386 16.3696 17.0483L16.7567 14.8225L17.0954 14.9677C17.9664 15.3548 18.547 15.5 19.6115 15.5C20.3857 15.5 21.2083 15.2096 21.2083 14.5322C21.2083 14.0968 20.8696 13.8064 19.8051 13.3226C18.7889 12.8387 17.4341 12.0645 17.4341 10.6613C17.4341 8.72587 19.3212 7.41943 21.9824 7.41943C22.9986 7.41943 23.8695 7.61298 24.4018 7.85491L24.0147 9.98391L23.8211 9.79037C23.3373 9.59682 22.7082 9.40328 21.7889 9.40328C20.7728 9.45166 20.2889 9.88714 20.2889 10.2742C20.2889 10.7097 20.8696 11.0484 21.7889 11.4839C23.3373 12.2097 24.0631 13.0323 24.0631 14.1935Z"
        fill="#3362AB" />
    <path
        d="M0.45166 7.66181L0.500047 7.46826H4.66128C5.24191 7.46826 5.67739 7.66181 5.82255 8.29083L6.74189 12.6456C5.82255 10.3231 3.69355 8.43599 0.45166 7.66181Z"
        fill="#F9B50B" />
    <path
        d="M12.5955 7.56548L8.38593 17.3879H5.53114L3.11182 9.16223C4.85373 10.2751 6.30532 12.017 6.83757 13.2267L7.12789 14.2428L9.74075 7.51709H12.5955V7.56548Z"
        fill="#3362AB" />
    <path d="M13.7121 7.51709H16.3733L14.6798 17.3879H12.0186L13.7121 7.51709Z" fill="#3362AB" />
</svg>